<svg xmlns="http://www.w3.org/2000/svg" xml:space="preserve" width="2048" height="2048" style="shape-rendering:geometricPrecision;text-rendering:geometricPrecision;image-rendering:optimizeQuality;fill-rule:evenodd;clip-rule:evenodd"><defs><style>.fil0{fill:none}.fil1{fill:#212121;fill-rule:nonzero}</style></defs><g id="Layer_x0020_1"><g id="_393281584"><path id="_393280576" class="fil0" d="M0 0h2048v2048H0z"/><path id="_393282400" class="fil0" d="M255.999 255.999h1536v1536h-1536z"/></g><path class="fil1" d="M289.23 575.998h1469.54c17.972 0 34.286 7.33 46.095 19.136C1816.67 606.943 1824 623.257 1824 641.23v797.54c0 17.972-7.33 34.286-19.136 46.095-11.809 11.806-28.123 19.136-46.095 19.136H289.23c-17.972 0-34.286-7.33-46.095-19.136-11.806-11.809-19.136-28.123-19.136-46.095V641.23c0-17.972 7.33-34.286 19.136-46.095 11.809-11.806 28.123-19.136 46.095-19.136zM1758.77 640H289.23c-.305 0-.608.148-.844.385-.237.236-.386.54-.386.844v797.54c0 .305.15.608.386.845.236.236.54.385.844.385h1469.54c.305 0 .608-.15.844-.385.237-.237.386-.54.386-.845V641.23c0-.305-.15-.608-.386-.844-.236-.237-.54-.385-.844-.385z"/><path class="fil1" d="M928.001 767.998H1696V832H928.001zM928.001 991.996H1696V1056H928.001zM928.001 1215.99H1696v64H928.001z"/><g id="_393287776"><path id="_393277624" class="fil1" d="M597.096 968.632c21.183 0 40.707-10.847 55.145-28.383 15.856-19.26 25.665-46.328 25.665-76.636 0-32.469-3.077-61.125-15.071-79.512-10.28-15.76-30.115-25.508-65.739-25.508-35.626 0-55.462 9.749-65.741 25.508-11.993 18.386-15.068 47.043-15.068 79.512 0 30.31 9.81 57.378 25.666 76.637 14.436 17.535 33.96 28.382 55.143 28.382zm104.394 12.117c-26.393 32.056-63.279 51.885-104.394 51.885-41.117 0-78.002-19.829-104.393-51.884-24.97-30.33-40.417-71.772-40.417-117.137 0-43.204 5.217-83.059 25.57-114.262 22.066-33.833 58.639-54.76 119.24-54.76 60.598 0 97.17 20.927 119.238 54.76 20.354 31.202 25.574 71.058 25.574 114.262 0 45.364-15.447 86.806-40.418 117.136z"/><path id="_393281224" class="fil1" d="M778.046 1271.29c-.941-59.434-4.71-96.819-20.78-118.854-14.044-19.257-41.34-30.91-89.365-40.643-14.012 9.94-37.44 21.458-70.805 21.458-33.366 0-56.798-11.518-70.81-21.458-47.507 9.632-74.742 21.16-88.919 40.082-16.058 21.433-20.072 57.645-21.146 115.13l-.044 2.288c-.05 2.657-.095 5.053-.12 10.949 11.121 11.903 51.61 41.159 181.039 41.159 129.454 0 169.932-29.27 181.042-41.168-.01-3.798-.025-4.732-.04-5.686l-.052-3.257zm30.722-156.354c25.995 35.648 31.884 82.962 33.03 155.355l.051 3.257c.15 9.269.3 14.822.3 16.62l-3.752 14.875c-.12.23-40.17 80.36-241.301 80.36-201.137 0-241.185-80.13-241.305-80.36l-3.751-14.875c0-1.436.182-11.048.386-21.874l.044-2.288c1.322-70.867 7.646-117.345 33.897-152.382 26.732-35.681 69.689-54.089 143.325-67.38l18.61-3.361 11.891 14.735c.026.033 9.052 11.632 36.904 11.632 27.847 0 36.873-11.599 36.899-11.632l11.89-14.735 18.61 3.36c74.509 13.45 117.62 32.147 144.272 68.693z"/></g></g></svg>