<svg xmlns="http://www.w3.org/2000/svg" xml:space="preserve" width="2048" height="2048" style="shape-rendering:geometricPrecision;text-rendering:geometricPrecision;image-rendering:optimizeQuality;fill-rule:evenodd;clip-rule:evenodd"><defs><style>.fil0{fill:none}</style></defs><g id="Layer_x0020_1"><g id="_526143984"><path id="_526163544" class="fil0" d="M0 0h2048v2048H0z"/><path id="_526171968" class="fil0" d="M255.999 255.999h1536v1536h-1536z"/></g><path d="m1024 597.749-4.47-5.073c-56.111-63.922-172.866-196.898-344.736-196.898-107.76 0-210.406 42.658-288.994 120.13-77.431 76.323-123.278 177.976-129.054 286.252-5.746 107.606 21.593 200.987 88.682 302.797 60.142 91.244 216.73 235.526 332.525 331.341 118.67 98.198 274.827 215.178 346.047 215.908V597.746z" style="fill:#7e7e7e;fill-rule:nonzero"/><path d="M1791.28 802.16c-5.804-108.276-51.621-209.929-129.062-286.253-78.61-77.47-181.225-120.129-288.994-120.129-161.372 0-275.632 124.643-336.997 191.608-3.497 3.819-7.257 7.91-10.923 11.852l-.355-.404-.952-1.085v1054.46l.088.001c.196.005.396.016.588.016 71.986 0 228.213-117.182 346.595-215.47 114.923-95.4 270.64-239.557 331.322-331.831 45.154-68.653 96.062-165.13 88.69-302.762z" style="fill:#8b8c8c;fill-rule:nonzero"/></g></svg>