<?xml version="1.0" encoding="UTF-8"?>
<!DOCTYPE svg PUBLIC "-//W3C//DTD SVG 1.1//EN" "http://www.w3.org/Graphics/SVG/1.1/DTD/svg11.dtd">
<svg xmlns="http://www.w3.org/2000/svg" version="1.1" width="890px" height="165px" style="shape-rendering:geometricPrecision; text-rendering:geometricPrecision; image-rendering:optimizeQuality; fill-rule:evenodd; clip-rule:evenodd" xmlns:xlink="http://www.w3.org/1999/xlink">
<g><path style="opacity:1" fill="#7fb26b" d="M 474.5,76.5 C 475.262,74.7376 476.596,73.7376 478.5,73.5C 491.517,66.353 504.851,65.6863 518.5,71.5C 520.19,71.8564 521.19,72.8564 521.5,74.5C 523.464,80.3237 523.964,86.3237 523,92.5C 517.989,113.544 512.822,134.544 507.5,155.5C 512.511,155.334 517.511,155.501 522.5,156C 521.833,157.333 521.167,158.667 520.5,160C 503.157,160.833 485.824,160.666 468.5,159.5C 469.246,158.264 469.579,156.93 469.5,155.5C 474.833,155.5 480.167,155.5 485.5,155.5C 492.05,130.467 498.05,105.3 503.5,80C 503.919,77.019 502.919,74.6856 500.5,73C 496.5,72.3333 492.5,72.3333 488.5,73C 485.316,73.7542 482.649,75.2542 480.5,77.5C 478.596,77.7376 477.262,78.7376 476.5,80.5C 475.167,82.5 473.5,84.1667 471.5,85.5C 469.469,86.5387 468.136,88.2054 467.5,90.5C 465.554,91.0347 464.554,92.368 464.5,94.5C 463.094,94.9731 462.427,95.9731 462.5,97.5C 460.707,99.4261 459.707,101.759 459.5,104.5C 452.875,120.911 447.875,137.911 444.5,155.5C 449.511,155.334 454.511,155.501 459.5,156C 458.833,157.333 458.167,158.667 457.5,160C 439.836,160.5 422.17,160.667 404.5,160.5C 404.421,159.07 404.754,157.736 405.5,156.5C 411.128,155.505 416.794,155.171 422.5,155.5C 434.85,106.767 447.517,58.1005 460.5,9.5C 454.537,8.50408 448.537,8.17075 442.5,8.5C 442.472,6.41764 443.139,4.5843 444.5,3C 457.022,2.78521 469.522,2.28521 482,1.5C 482.833,1.83333 483.667,2.16667 484.5,2.5C 476.328,31.5251 468.994,60.5251 462.5,89.5C 466.522,85.1465 470.522,80.8131 474.5,76.5 Z"/></g>
<g><path style="opacity:1" fill="#80b36b" d="M 665.5,77.5 C 668.089,76.5806 670.089,74.914 671.5,72.5C 671.973,71.0937 672.973,70.427 674.5,70.5C 688.667,63.2521 702.334,63.9188 715.5,72.5C 717.914,73.9108 719.581,75.9108 720.5,78.5C 724.326,85.3153 726.326,92.6486 726.5,100.5C 725.782,108.705 724.115,116.705 721.5,124.5C 721.672,125.492 721.338,126.158 720.5,126.5C 718.412,128.336 717.079,130.669 716.5,133.5C 715.974,135.23 714.974,136.564 713.5,137.5C 712.094,137.973 711.427,138.973 711.5,140.5C 709.5,144.5 706.5,147.5 702.5,149.5C 700.251,150.08 698.585,151.413 697.5,153.5C 697.027,154.906 696.027,155.573 694.5,155.5C 685.299,161.134 675.299,163.634 664.5,163C 661.721,162.439 659.054,161.606 656.5,160.5C 656.027,159.094 655.027,158.427 653.5,158.5C 652.864,156.205 651.531,154.539 649.5,153.5C 648.326,152.486 647.66,151.153 647.5,149.5C 647.461,146.679 646.795,144.012 645.5,141.5C 643.052,147.288 641.218,153.288 640,159.5C 638.991,160.658 637.658,161.325 636,161.5C 624.522,160.576 613.022,160.243 601.5,160.5C 601.421,159.07 601.754,157.736 602.5,156.5C 608.128,155.505 613.794,155.171 619.5,155.5C 631.85,106.767 644.517,58.1005 657.5,9.5C 652.208,8.50515 646.875,8.17182 641.5,8.5C 641.472,6.41764 642.139,4.5843 643.5,3C 655.186,2.77032 666.852,2.27032 678.5,1.5C 679.5,1.83333 680.5,2.16667 681.5,2.5C 673.592,29.8383 666.592,57.1717 660.5,84.5C 662.605,82.4084 664.272,80.0751 665.5,77.5 Z M 702.5,73.5 C 704.706,79.0224 704.873,84.689 703,90.5C 699.965,104.973 696.465,119.306 692.5,133.5C 691.262,135.214 690.595,137.214 690.5,139.5C 689.069,140.78 688.402,142.447 688.5,144.5C 686.992,146.181 685.992,148.181 685.5,150.5C 683.284,151.966 681.284,153.633 679.5,155.5C 672.246,157.235 665.246,156.568 658.5,153.5C 656.823,151.46 655.156,149.46 653.5,147.5C 649.337,134.077 649.837,120.744 655,107.5C 656.977,100.891 659.477,94.5579 662.5,88.5C 665.138,85.5256 667.805,82.5256 670.5,79.5C 675.398,76.2192 680.732,73.7192 686.5,72C 692.014,71.0701 697.348,71.5701 702.5,73.5 Z"/></g>
<g><path style="opacity:0.912" fill="#d7d6d0" d="M 612.5,22.5 C 613.213,10.8866 607.879,6.55324 596.5,9.5C 605.579,5.03708 611.579,7.70374 614.5,17.5C 614.199,19.4216 613.533,21.0883 612.5,22.5 Z"/></g>
<g><path style="opacity:0.908" fill="#dfddd8" d="M 805.5,9.5 C 802.221,8.50782 798.888,8.34115 795.5,9C 793.114,10.1932 790.78,11.3599 788.5,12.5C 792.781,7.81588 798.115,6.31588 804.5,8C 805.056,8.38258 805.389,8.88258 805.5,9.5 Z"/></g>
<g><path style="opacity:0.499" fill="#dfdbd8" d="M 484.5,-0.5 C 485.167,-0.5 485.833,-0.5 486.5,-0.5C 478.847,27.7783 471.681,56.1116 465,84.5C 467.766,81.2232 470.933,78.5566 474.5,76.5C 470.522,80.8131 466.522,85.1465 462.5,89.5C 468.994,60.5251 476.328,31.5251 484.5,2.5C 483.667,2.16667 482.833,1.83333 482,1.5C 469.522,2.28521 457.022,2.78521 444.5,3C 443.139,4.5843 442.472,6.41764 442.5,8.5C 448.537,8.17075 454.537,8.50408 460.5,9.5C 447.517,58.1005 434.85,106.767 422.5,155.5C 416.794,155.171 411.128,155.505 405.5,156.5C 404.754,157.736 404.421,159.07 404.5,160.5C 422.17,160.667 439.836,160.5 457.5,160C 458.167,158.667 458.833,157.333 459.5,156C 454.511,155.501 449.511,155.334 444.5,155.5C 447.875,137.911 452.875,120.911 459.5,104.5C 454.699,120.703 450.366,137.037 446.5,153.5C 451.544,153.173 456.544,153.506 461.5,154.5C 460.423,156.729 459.756,159.063 459.5,161.5C 440.488,161.833 421.488,161.5 402.5,160.5C 403.167,158.5 403.833,156.5 404.5,154.5C 410.128,153.505 415.794,153.171 421.5,153.5C 433.836,105.494 446.169,57.4939 458.5,9.5C 452.463,9.82925 446.463,9.49592 440.5,8.5C 441.577,6.27058 442.244,3.93724 442.5,1.5C 453.838,1.66652 465.172,1.49986 476.5,1C 479.365,0.817095 482.031,0.317095 484.5,-0.5 Z"/></g>
<g><path style="opacity:1" fill="#80b36c" d="M 612.5,22.5 C 610.782,24.2228 609.449,26.2228 608.5,28.5C 607.738,30.2624 606.404,31.2624 604.5,31.5C 599.469,34.0652 594.469,34.0652 589.5,31.5C 588.833,31.5 588.5,31.1667 588.5,30.5C 586.903,27.6812 586.403,24.6812 587,21.5C 588.892,16.4471 592.058,12.4471 596.5,9.5C 607.879,6.55324 613.213,10.8866 612.5,22.5 Z"/></g>
<g><path style="opacity:1" fill="#82b36d" d="M 805.5,9.5 C 807.144,9.81018 808.144,10.8102 808.5,12.5C 809.653,16.9113 809.32,21.2446 807.5,25.5C 806.557,28.1092 804.89,30.1092 802.5,31.5C 802.44,30.9569 802.107,30.6236 801.5,30.5C 796.303,33.9267 790.97,34.2601 785.5,31.5C 784.833,31.5 784.5,31.1667 784.5,30.5C 784.938,30.5654 785.272,30.3988 785.5,30C 784.106,28.2605 783.439,26.2605 783.5,24C 783.815,20.5562 784.815,17.3895 786.5,14.5C 786.5,13.1667 787.167,12.5 788.5,12.5C 790.78,11.3599 793.114,10.1932 795.5,9C 798.888,8.34115 802.221,8.50782 805.5,9.5 Z"/></g>
<g><path style="opacity:0.122" fill="#e1ddda" d="M 808.5,12.5 C 810.966,16.2481 811.133,20.2481 809,24.5C 808.617,25.056 808.117,25.3893 807.5,25.5C 809.32,21.2446 809.653,16.9113 808.5,12.5 Z"/></g>
<g><path style="opacity:0.698" fill="#dbdad4" d="M 786.5,14.5 C 784.815,17.3895 783.815,20.5562 783.5,24C 783.439,26.2605 784.106,28.2605 785.5,30C 785.272,30.3988 784.938,30.5654 784.5,30.5C 781.073,26.1662 780.906,21.4995 784,16.5C 784.708,15.6195 785.542,14.9528 786.5,14.5 Z"/></g>
<g><path style="opacity:0.212" fill="#dcd8d4" d="M 596.5,9.5 C 592.058,12.4471 588.892,16.4471 587,21.5C 586.403,24.6812 586.903,27.6812 588.5,30.5C 586.32,28.9687 585.32,26.8021 585.5,24C 586.017,16.6638 589.684,11.8304 596.5,9.5 Z"/></g>
<g><path style="opacity:0.612" fill="#d4d7cb" d="M 612.5,22.5 C 612.378,25.2921 611.044,27.2921 608.5,28.5C 609.449,26.2228 610.782,24.2228 612.5,22.5 Z"/></g>
<g><path style="opacity:0.602" fill="#e0ddd8" d="M 589.5,31.5 C 594.469,34.0652 599.469,34.0652 604.5,31.5C 602.393,33.6515 599.726,34.6515 596.5,34.5C 593.499,34.8284 591.166,33.8284 589.5,31.5 Z"/></g>
<g><path style="opacity:0.642" fill="#dfdbd8" d="M 802.5,31.5 C 798.222,34.2559 793.556,35.0892 788.5,34C 787.058,33.6232 786.058,32.7899 785.5,31.5C 790.97,34.2601 796.303,33.9267 801.5,30.5C 802.107,30.6236 802.44,30.9569 802.5,31.5 Z"/></g>
<g><path style="opacity:0.941" fill="#e0ddd9" d="M 386.5,68.5 C 376.966,64.947 367.299,64.6136 357.5,67.5C 359.148,66.0735 361.148,65.2401 363.5,65C 368.833,64.3333 374.167,64.3333 379.5,65C 382.281,65.5218 384.615,66.6885 386.5,68.5 Z"/></g>
<g><path style="opacity:0.886" fill="#dddad6" d="M 715.5,72.5 C 702.334,63.9188 688.667,63.2521 674.5,70.5C 676.649,68.2542 679.316,66.7542 682.5,66C 692.92,63.2746 702.92,64.2746 712.5,69C 713.71,70.0391 714.71,71.2058 715.5,72.5 Z"/></g>
<g><path style="opacity:1" fill="#81b36d" d="M 386.5,68.5 C 388.127,70.6298 389.96,72.6298 392,74.5C 392.717,73.9558 393.217,73.2891 393.5,72.5C 394.167,70.5 395.5,69.1667 397.5,68.5C 398.708,67.7659 400.041,67.4326 401.5,67.5C 399.5,75.8333 397.5,84.1667 395.5,92.5C 394.167,92.5 392.833,92.5 391.5,92.5C 391.451,86.7535 389.951,81.4202 387,76.5C 386.184,75.1772 385.017,74.5106 383.5,74.5C 383.027,73.0937 382.027,72.427 380.5,72.5C 367.638,67.7617 356.471,70.4284 347,80.5C 344.702,84.2176 344.035,88.2176 345,92.5C 345.383,93.056 345.883,93.3893 346.5,93.5C 347.749,95.1361 349.416,96.3028 351.5,97C 360.845,99.0009 370.178,101.001 379.5,103C 390.981,107.812 395.481,116.312 393,128.5C 391.793,133.288 390.293,137.955 388.5,142.5C 388.672,143.492 388.338,144.158 387.5,144.5C 385.738,145.262 384.738,146.596 384.5,148.5C 384.167,149.5 383.5,150.167 382.5,150.5C 379.553,151.781 377.219,153.781 375.5,156.5C 373.973,156.427 372.973,157.094 372.5,158.5C 366.245,161.022 359.745,162.689 353,163.5C 348.052,163.016 343.218,162.016 338.5,160.5C 335.357,158.758 332.357,156.758 329.5,154.5C 330.061,151.813 329.394,151.813 327.5,154.5C 325.973,154.427 324.973,155.094 324.5,156.5C 323.738,158.262 322.404,159.262 320.5,159.5C 319.167,159.5 317.833,159.5 316.5,159.5C 318.489,148.045 321.489,136.878 325.5,126C 326.448,125.517 327.448,125.351 328.5,125.5C 328.323,134.451 330.49,142.785 335,150.5C 335.816,151.823 336.983,152.489 338.5,152.5C 340.23,153.026 341.564,154.026 342.5,155.5C 345.638,157.961 349.305,158.961 353.5,158.5C 357.141,158.685 360.474,158.019 363.5,156.5C 367.42,155.873 370.753,154.207 373.5,151.5C 376.833,150.167 379.167,147.833 380.5,144.5C 380.328,143.508 380.662,142.842 381.5,142.5C 382.997,140.71 383.664,138.544 383.5,136C 383.492,134.293 383.158,132.793 382.5,131.5C 382.033,128.703 380.367,127.369 377.5,127.5C 374.386,126.044 371.052,124.878 367.5,124C 357.079,123.481 347.412,120.648 338.5,115.5C 336.856,115.19 335.856,114.19 335.5,112.5C 333.959,108.836 332.959,105.003 332.5,101C 333.059,96.3678 334.059,91.8678 335.5,87.5C 335.75,85.326 336.75,83.6594 338.5,82.5C 340.587,81.4154 341.92,79.7488 342.5,77.5C 345.81,75.5179 348.81,73.1846 351.5,70.5C 353.819,70.0075 355.819,69.0075 357.5,67.5C 367.299,64.6136 376.966,64.947 386.5,68.5 Z"/></g>
<g><path style="opacity:1" fill="#81b36d" d="M 880.5,71.5 C 880.5,70.8333 880.833,70.5 881.5,70.5C 883.053,68.615 885.053,67.615 887.5,67.5C 885.344,75.7919 883.344,84.1252 881.5,92.5C 880.167,92.5 878.833,92.5 877.5,92.5C 877.451,86.7535 875.951,81.4202 873,76.5C 871.871,74.8588 870.371,73.8588 868.5,73.5C 867.158,72.207 865.491,71.3736 863.5,71C 858.167,70.3333 852.833,70.3333 847.5,71C 846.584,71.2784 845.918,71.7784 845.5,72.5C 835.012,75.1442 830.179,81.8108 831,92.5C 831.383,93.056 831.883,93.3893 832.5,93.5C 833.749,95.1361 835.416,96.3028 837.5,97C 849.174,98.6641 860.507,101.497 871.5,105.5C 872.391,106.11 873.391,106.443 874.5,106.5C 873.953,108.712 874.953,110.379 877.5,111.5C 880.727,122.215 879.727,132.548 874.5,142.5C 874.672,143.492 874.338,144.158 873.5,144.5C 871.738,145.262 870.738,146.596 870.5,148.5C 870.167,149.5 869.5,150.167 868.5,150.5C 864.854,152.817 861.52,155.484 858.5,158.5C 857.486,159.674 856.153,160.34 854.5,160.5C 846.318,163.623 837.984,164.123 829.5,162C 826.929,160.546 824.262,159.38 821.5,158.5C 820.415,156.413 818.749,155.08 816.5,154.5C 815.5,154.5 814.5,154.5 813.5,154.5C 811.973,154.427 810.973,155.094 810.5,156.5C 809.738,158.262 808.404,159.262 806.5,159.5C 804.801,159.66 803.134,159.494 801.5,159C 804.56,148.928 807.394,138.761 810,128.5C 810.589,126.137 812.089,125.137 814.5,125.5C 814.577,129.877 815.077,134.21 816,138.5C 816.387,141.599 817.554,144.266 819.5,146.5C 819.67,149.204 821.003,150.871 823.5,151.5C 825.191,152.864 826.858,154.197 828.5,155.5C 829.347,156.966 830.68,157.8 832.5,158C 842.657,160.043 851.657,157.877 859.5,151.5C 861.167,149.167 863.167,147.167 865.5,145.5C 869.226,141.616 870.393,136.949 869,131.5C 868.125,128.785 866.292,127.452 863.5,127.5C 852.968,124.666 842.301,121.833 831.5,119C 828.014,117.004 824.681,114.837 821.5,112.5C 820.094,108.613 819.094,104.613 818.5,100.5C 819.035,96.0296 820.035,91.6963 821.5,87.5C 821.75,85.326 822.75,83.6594 824.5,82.5C 826.587,81.4154 827.92,79.7488 828.5,77.5C 831.81,75.5179 834.81,73.1846 837.5,70.5C 839.819,70.0075 841.819,69.0075 843.5,67.5C 852.555,64.6708 861.555,64.8375 870.5,68C 873.295,69.7932 875.795,71.9598 878,74.5C 879.045,73.6266 879.878,72.6266 880.5,71.5 Z"/></g>
<g><path style="opacity:0.027" fill="#dfdcd8" d="M 880.5,71.5 C 879.878,72.6266 879.045,73.6266 878,74.5C 875.795,71.9598 873.295,69.7932 870.5,68C 861.555,64.8375 852.555,64.6708 843.5,67.5C 845.148,66.0735 847.148,65.2401 849.5,65C 860.48,62.4229 869.98,64.9229 878,72.5C 878.671,71.7476 879.504,71.4142 880.5,71.5 Z"/></g>
<g><path style="opacity:1" fill="#80b26b" d="M 295.5,71.5 C 296.833,71.5 297.5,72.1667 297.5,73.5C 299.442,77.5755 299.942,81.9089 299,86.5C 293.597,106.946 288.43,127.446 283.5,148C 283.667,150.833 285.167,152.333 288,152.5C 289.888,152.204 291.722,151.704 293.5,151C 295.346,148.071 297.679,146.905 300.5,147.5C 300.25,149.674 299.25,151.341 297.5,152.5C 294.833,154.5 292.5,156.833 290.5,159.5C 282.265,164.294 273.932,164.628 265.5,160.5C 262.237,155.743 260.737,150.41 261,144.5C 259.293,146.037 257.793,147.704 256.5,149.5C 254.251,150.08 252.585,151.413 251.5,153.5C 250.738,155.262 249.404,156.262 247.5,156.5C 239.993,160.446 231.993,162.779 223.5,163.5C 217.626,163.368 212.293,161.702 207.5,158.5C 206.5,158.167 205.833,157.5 205.5,156.5C 204.074,153.478 203.074,150.312 202.5,147C 203.267,141.2 204.934,135.7 207.5,130.5C 209.262,129.738 210.262,128.404 210.5,126.5C 212.749,125.92 214.415,124.587 215.5,122.5C 218.511,121.331 221.178,119.664 223.5,117.5C 225.426,115.707 227.759,114.707 230.5,114.5C 243.886,110.658 257.552,108.658 271.5,108.5C 273.893,99.0916 275.893,89.5916 277.5,80C 277.919,77.019 276.919,74.6856 274.5,73C 264.913,70.544 255.58,71.2106 246.5,75C 243.29,78.2811 242.623,82.1144 244.5,86.5C 243.692,89.5917 242.692,92.5917 241.5,95.5C 238.423,97.3682 235.09,98.7015 231.5,99.5C 229.068,99.1136 226.734,98.4469 224.5,97.5C 223.624,94.2011 223.457,90.8678 224,87.5C 225.356,84.6711 226.856,82.0045 228.5,79.5C 230.749,78.9202 232.415,77.5869 233.5,75.5C 253.644,65.3466 274.31,64.0133 295.5,71.5 Z M 261.5,137.5 C 260.094,137.973 259.427,138.973 259.5,140.5C 256.808,142.862 254.141,145.196 251.5,147.5C 249.973,147.427 248.973,148.094 248.5,149.5C 242.518,152.246 236.518,152.579 230.5,150.5C 230.573,148.973 229.906,147.973 228.5,147.5C 227.508,140.121 228.842,133.121 232.5,126.5C 234.833,124.833 236.833,122.833 238.5,120.5C 247.995,116.024 257.995,114.19 268.5,115C 266.267,122.532 263.934,130.032 261.5,137.5 Z"/></g>
<g><path style="opacity:0.651" fill="#e1dcd7" d="M 357.5,67.5 C 355.819,69.0075 353.819,70.0075 351.5,70.5C 352.911,68.461 354.911,67.461 357.5,67.5 Z"/></g>
<g><path style="opacity:0.659" fill="#e0dbd7" d="M 843.5,67.5 C 841.819,69.0075 839.819,70.0075 837.5,70.5C 838.911,68.461 840.911,67.461 843.5,67.5 Z"/></g>
<g><path style="opacity:0.953" fill="#dddad6" d="M 295.5,71.5 C 274.31,64.0133 253.644,65.3466 233.5,75.5C 241.455,69.7494 250.455,66.5827 260.5,66C 270.635,64.9584 280.635,65.6251 290.5,68C 292.584,68.6972 294.251,69.8639 295.5,71.5 Z"/></g>
<g><path style="opacity:0.125" fill="#d3d8cc" d="M 386.5,68.5 C 388.996,69.5804 391.33,70.9138 393.5,72.5C 393.217,73.2891 392.717,73.9558 392,74.5C 389.96,72.6298 388.127,70.6298 386.5,68.5 Z"/></g>
<g><path style="opacity:0.945" fill="#e2dedb" d="M 868.5,73.5 C 860.933,71.2775 853.266,70.9441 845.5,72.5C 845.918,71.7784 846.584,71.2784 847.5,71C 852.833,70.3333 858.167,70.3333 863.5,71C 865.491,71.3736 867.158,72.207 868.5,73.5 Z"/></g>
<g><path style="opacity:0.949" fill="#d2d7c8" d="M 351.5,70.5 C 348.81,73.1846 345.81,75.5179 342.5,77.5C 344.592,74.083 347.592,71.7497 351.5,70.5 Z"/></g>
<g><path style="opacity:0.776" fill="#d8d8d0" d="M 518.5,71.5 C 504.851,65.6863 491.517,66.353 478.5,73.5C 489.089,65.4189 500.756,63.5856 513.5,68C 515.584,68.6972 517.251,69.8639 518.5,71.5 Z"/></g>
<g><path style="opacity:0.953" fill="#cfd6c6" d="M 837.5,70.5 C 834.81,73.1846 831.81,75.5179 828.5,77.5C 830.592,74.083 833.592,71.7497 837.5,70.5 Z"/></g>
<g><path style="opacity:0.059" fill="#dcdbd5" d="M 380.5,72.5 C 367.808,69.1238 356.974,72.1238 348,81.5C 345.427,85.2647 344.927,89.2647 346.5,93.5C 345.883,93.3893 345.383,93.056 345,92.5C 344.035,88.2176 344.702,84.2176 347,80.5C 356.471,70.4284 367.638,67.7617 380.5,72.5 Z"/></g>
<g><path style="opacity:0.676" fill="#e1dad6" d="M 380.5,72.5 C 382.027,72.427 383.027,73.0937 383.5,74.5C 381.973,74.573 380.973,73.9063 380.5,72.5 Z"/></g>
<g><path style="opacity:0.804" fill="#d6d7cd" d="M 702.5,73.5 C 697.348,71.5701 692.014,71.0701 686.5,72C 680.732,73.7192 675.398,76.2192 670.5,79.5C 679.067,70.8122 689.233,68.1456 701,71.5C 702.03,71.8361 702.53,72.5028 702.5,73.5 Z"/></g>
<g><path style="opacity:0.824" fill="#d2d7c8" d="M 671.5,72.5 C 670.089,74.914 668.089,76.5806 665.5,77.5C 666.865,75.1402 668.865,73.4735 671.5,72.5 Z"/></g>
<g><path style="opacity:0.976" fill="#d2d7cb" d="M 233.5,75.5 C 232.415,77.5869 230.749,78.9202 228.5,79.5C 229.585,77.4131 231.251,76.0798 233.5,75.5 Z"/></g>
<g><path style="opacity:0.067" fill="#e1dedc" d="M 480.5,77.5 C 479.738,79.2624 478.404,80.2624 476.5,80.5C 477.262,78.7376 478.596,77.7376 480.5,77.5 Z"/></g>
<g><path style="opacity:0.933" fill="#cbd4c1" d="M 828.5,77.5 C 827.92,79.7488 826.587,81.4154 824.5,82.5C 825.08,80.2512 826.413,78.5846 828.5,77.5 Z"/></g>
<g><path style="opacity:0.949" fill="#d1d6c7" d="M 342.5,77.5 C 341.92,79.7488 340.587,81.4154 338.5,82.5C 339.08,80.2512 340.413,78.5846 342.5,77.5 Z"/></g>
<g><path style="opacity:0.365" fill="#dbdad3" d="M 845.5,72.5 C 841.283,74.8766 837.449,77.8766 834,81.5C 831.427,85.2647 830.927,89.2647 832.5,93.5C 831.883,93.3893 831.383,93.056 831,92.5C 830.179,81.8108 835.012,75.1442 845.5,72.5 Z"/></g>
<g><path style="opacity:0.596" fill="#d8d7d0" d="M 889.5,65.5 C 889.5,66.5 889.5,67.5 889.5,68.5C 886.566,76.894 884.233,85.5607 882.5,94.5C 880.167,94.5 877.833,94.5 875.5,94.5C 876.53,86.2571 874.197,79.2571 868.5,73.5C 870.371,73.8588 871.871,74.8588 873,76.5C 875.951,81.4202 877.451,86.7535 877.5,92.5C 878.833,92.5 880.167,92.5 881.5,92.5C 883.344,84.1252 885.344,75.7919 887.5,67.5C 885.053,67.615 883.053,68.615 881.5,70.5C 882.534,66.4655 885.2,64.7988 889.5,65.5 Z"/></g>
<g><path style="opacity:0.937" fill="#dfdbd8" d="M 680.5,-0.5 C 681.5,-0.5 682.5,-0.5 683.5,-0.5C 676.334,26.1648 669.501,52.8315 663,79.5C 663.708,78.6195 664.542,77.9528 665.5,77.5C 664.272,80.0751 662.605,82.4084 660.5,84.5C 666.592,57.1717 673.592,29.8383 681.5,2.5C 680.5,2.16667 679.5,1.83333 678.5,1.5C 666.852,2.27032 655.186,2.77032 643.5,3C 642.139,4.5843 641.472,6.41764 641.5,8.5C 646.875,8.17182 652.208,8.50515 657.5,9.5C 644.517,58.1005 631.85,106.767 619.5,155.5C 613.794,155.171 608.128,155.505 602.5,156.5C 601.754,157.736 601.421,159.07 601.5,160.5C 613.022,160.243 624.522,160.576 636,161.5C 637.658,161.325 638.991,160.658 640,159.5C 641.218,153.288 643.052,147.288 645.5,141.5C 646.795,144.012 647.461,146.679 647.5,149.5C 646.685,148.571 645.852,147.571 645,146.5C 643.619,152.372 641.786,158.039 639.5,163.5C 626.227,162.087 612.894,161.087 599.5,160.5C 600.577,158.271 601.244,155.937 601.5,153.5C 607.167,153.5 612.833,153.5 618.5,153.5C 630.835,105.494 643.168,57.4937 655.5,9.5C 650.125,9.82818 644.792,9.49485 639.5,8.5C 640.167,6.5 640.833,4.5 641.5,2.5C 654.702,2.02188 667.702,1.02188 680.5,-0.5 Z"/></g>
<g><path style="opacity:0.031" fill="#dadbd4" d="M 471.5,85.5 C 470.876,87.754 469.543,89.4206 467.5,90.5C 468.136,88.2054 469.469,86.5387 471.5,85.5 Z"/></g>
<g><path style="opacity:0.236" fill="#d9d8d2" d="M 383.5,74.5 C 385.017,74.5106 386.184,75.1772 387,76.5C 389.951,81.4202 391.451,86.7535 391.5,92.5C 392.833,92.5 394.167,92.5 395.5,92.5C 397.5,84.1667 399.5,75.8333 401.5,67.5C 400.041,67.4326 398.708,67.7659 397.5,68.5C 397.5,67.5 397.5,66.5 397.5,65.5C 399.5,65.5 401.5,65.5 403.5,65.5C 401.01,75.1251 398.677,84.7918 396.5,94.5C 394.167,94.5 391.833,94.5 389.5,94.5C 390.481,86.7888 388.481,80.1222 383.5,74.5 Z"/></g>
<g><path style="opacity:0.106" fill="#dbd9d4" d="M 467.5,90.5 C 466.974,92.2303 465.974,93.5637 464.5,94.5C 464.554,92.368 465.554,91.0347 467.5,90.5 Z"/></g>
<g><path style="opacity:0.306" fill="#d8d6d1" d="M 228.5,79.5 C 226.856,82.0045 225.356,84.6711 224,87.5C 223.457,90.8678 223.624,94.2011 224.5,97.5C 221.302,92.738 221.469,87.738 225,82.5C 226.039,81.2899 227.206,80.2899 228.5,79.5 Z"/></g>
<g><path style="opacity:0.951" fill="#dedbd7" d="M 702.5,73.5 C 703.75,73.5774 704.583,74.244 705,75.5C 704.206,95.6412 700.04,114.975 692.5,133.5C 696.465,119.306 699.965,104.973 703,90.5C 704.873,84.689 704.706,79.0224 702.5,73.5 Z"/></g>
<g><path style="opacity:0.727" fill="#d9d8d1" d="M 346.5,93.5 C 357.722,96.6506 369.055,99.4839 380.5,102C 389.911,105.814 394.911,112.814 395.5,123C 394.727,127.927 393.56,132.76 392,137.5C 391.303,139.584 390.136,141.251 388.5,142.5C 390.293,137.955 391.793,133.288 393,128.5C 395.481,116.312 390.981,107.812 379.5,103C 370.178,101.001 360.845,99.0009 351.5,97C 349.416,96.3028 347.749,95.1361 346.5,93.5 Z"/></g>
<g><path style="opacity:0.537" fill="#dad9d3" d="M 464.5,94.5 C 464.573,96.0269 463.906,97.0269 462.5,97.5C 462.427,95.9731 463.094,94.9731 464.5,94.5 Z"/></g>
<g><path style="opacity:0.867" fill="#dfdcd7" d="M 720.5,78.5 C 725.671,84.9916 728.005,92.4916 727.5,101C 727.588,109.482 725.588,117.316 721.5,124.5C 724.115,116.705 725.782,108.705 726.5,100.5C 726.326,92.6486 724.326,85.3153 720.5,78.5 Z"/></g>
<g><path style="opacity:0.918" fill="#dedbd7" d="M 832.5,93.5 C 841.547,96.7439 850.881,98.9106 860.5,100C 864.787,100.81 868.454,102.643 871.5,105.5C 860.507,101.497 849.174,98.6641 837.5,97C 835.416,96.3028 833.749,95.1361 832.5,93.5 Z"/></g>
<g><path style="opacity:0.063" fill="#dfddd9" d="M 241.5,95.5 C 237.916,100.047 233.25,101.547 227.5,100C 226.058,99.6232 225.058,98.7899 224.5,97.5C 226.734,98.4469 229.068,99.1136 231.5,99.5C 235.09,98.7015 238.423,97.3682 241.5,95.5 Z"/></g>
<g><path style="opacity:0.603" fill="#dedbd6" d="M 821.5,87.5 C 820.035,91.6963 819.035,96.0296 818.5,100.5C 819.094,104.613 820.094,108.613 821.5,112.5C 818.509,109.366 817.176,105.532 817.5,101C 817.381,95.9556 818.715,91.4556 821.5,87.5 Z"/></g>
<g><path style="opacity:0.553" fill="#e0dbd8" d="M 335.5,87.5 C 334.059,91.8678 333.059,96.3678 332.5,101C 332.959,105.003 333.959,108.836 335.5,112.5C 332.509,109.366 331.176,105.532 331.5,101C 331.381,95.9556 332.715,91.4556 335.5,87.5 Z"/></g>
<g><path style="opacity:0.78" fill="#dfdcd9" d="M 462.5,97.5 C 462.293,100.241 461.293,102.574 459.5,104.5C 459.707,101.759 460.707,99.4261 462.5,97.5 Z"/></g>
<g><path style="opacity:0.69" fill="#dfdbd8" d="M 230.5,114.5 C 234.456,112.251 238.789,110.751 243.5,110C 252.613,108.767 261.613,107.267 270.5,105.5C 273.129,96.985 275.129,88.3183 276.5,79.5C 276.152,77.3033 275.152,75.47 273.5,74C 264.604,71.7563 255.938,72.423 247.5,76C 245.876,77.1171 244.876,78.6171 244.5,80.5C 245.496,83.7975 245.663,87.1308 245,90.5C 244.777,92.8808 243.61,94.5475 241.5,95.5C 242.692,92.5917 243.692,89.5917 244.5,86.5C 242.623,82.1144 243.29,78.2811 246.5,75C 255.58,71.2106 264.913,70.544 274.5,73C 276.919,74.6856 277.919,77.019 277.5,80C 275.893,89.5916 273.893,99.0916 271.5,108.5C 257.552,108.658 243.886,110.658 230.5,114.5 Z"/></g>
<g><path style="opacity:0.141" fill="#d9d9d2" d="M 874.5,106.5 C 875.89,107.899 876.89,109.566 877.5,111.5C 874.953,110.379 873.953,108.712 874.5,106.5 Z"/></g>
<g><path style="opacity:0.884" fill="#dadad1" d="M 662.5,88.5 C 659.477,94.5579 656.977,100.891 655,107.5C 649.837,120.744 649.337,134.077 653.5,147.5C 651.59,146.025 650.424,144.025 650,141.5C 648.641,136.225 648.308,130.891 649,125.5C 651.465,113.439 655.132,101.772 660,90.5C 660.708,89.6195 661.542,88.9528 662.5,88.5 Z"/></g>
<g><path style="opacity:0.067" fill="#dddad5" d="M 297.5,73.5 C 298.458,73.9528 299.292,74.6195 300,75.5C 300.667,79.5 300.667,83.5 300,87.5C 295.008,107.135 290.174,126.802 285.5,146.5C 285.577,151.706 287.91,152.872 292.5,150C 294.157,147.662 296.324,146.162 299,145.5C 299.833,145.833 300.667,146.167 301.5,146.5C 301.376,147.107 301.043,147.44 300.5,147.5C 297.679,146.905 295.346,148.071 293.5,151C 291.722,151.704 289.888,152.204 288,152.5C 285.167,152.333 283.667,150.833 283.5,148C 288.43,127.446 293.597,106.946 299,86.5C 299.942,81.9089 299.442,77.5755 297.5,73.5 Z"/></g>
<g><path style="opacity:0.914" fill="#dcd9d5" d="M 877.5,111.5 C 878.117,111.611 878.617,111.944 879,112.5C 882.106,120.91 881.772,129.243 878,137.5C 877.303,139.584 876.136,141.251 874.5,142.5C 879.727,132.548 880.727,122.215 877.5,111.5 Z"/></g>
<g><path style="opacity:0.878" fill="#d5d9cd" d="M 223.5,117.5 C 221.178,119.664 218.511,121.331 215.5,122.5C 217.53,119.818 220.197,118.151 223.5,117.5 Z"/></g>
<g><path style="opacity:0.384" fill="#d5d8cc" d="M 238.5,120.5 C 236.833,122.833 234.833,124.833 232.5,126.5C 233.5,123.5 235.5,121.5 238.5,120.5 Z"/></g>
<g><path style="opacity:0.712" fill="#dbd8d4" d="M 821.5,112.5 C 824.681,114.837 828.014,117.004 831.5,119C 842.301,121.833 852.968,124.666 863.5,127.5C 853.076,125.763 842.743,123.596 832.5,121C 827.721,119.363 824.054,116.529 821.5,112.5 Z"/></g>
<g><path style="opacity:0.816" fill="#dfdad8" d="M 338.5,115.5 C 347.412,120.648 357.079,123.481 367.5,124C 371.052,124.878 374.386,126.044 377.5,127.5C 369.216,125.81 360.883,124.31 352.5,123C 347.038,121.772 342.371,119.272 338.5,115.5 Z"/></g>
<g><path style="opacity:0.98" fill="#c1c6b6" d="M 215.5,122.5 C 214.415,124.587 212.749,125.92 210.5,126.5C 211.539,124.469 213.205,123.136 215.5,122.5 Z"/></g>
<g><path style="opacity:0.999" fill="#dbd9d4" d="M 338.5,152.5 C 336.983,152.489 335.816,151.823 335,150.5C 330.49,142.785 328.323,134.451 328.5,125.5C 327.448,125.351 326.448,125.517 325.5,126C 321.489,136.878 318.489,148.045 316.5,159.5C 317.833,159.5 319.167,159.5 320.5,159.5C 318.735,160.461 316.735,160.795 314.5,160.5C 317.5,148.5 320.5,136.5 323.5,124.5C 325.5,124.5 327.5,124.5 329.5,124.5C 329.43,134.91 332.43,144.244 338.5,152.5 Z"/></g>
<g><path style="opacity:0.737" fill="#dfdbd8" d="M 819.5,146.5 C 817.554,144.266 816.387,141.599 816,138.5C 815.077,134.21 814.577,129.877 814.5,125.5C 812.089,125.137 810.589,126.137 810,128.5C 807.394,138.761 804.56,148.928 801.5,159C 803.134,159.494 804.801,159.66 806.5,159.5C 804.735,160.461 802.735,160.795 800.5,160.5C 803.224,149.157 806.057,137.824 809,126.5C 810.754,124.75 812.921,124.083 815.5,124.5C 815.972,132.001 817.305,139.334 819.5,146.5 Z"/></g>
<g><path style="opacity:0.902" fill="#dcdcd5" d="M 210.5,126.5 C 210.262,128.404 209.262,129.738 207.5,130.5C 207.738,128.596 208.738,127.262 210.5,126.5 Z"/></g>
<g><path style="opacity:0.263" fill="#dadbd1" d="M 377.5,127.5 C 380.367,127.369 382.033,128.703 382.5,131.5C 380.809,130.136 379.142,128.803 377.5,127.5 Z"/></g>
<g><path style="opacity:0.48" fill="#d7dace" d="M 720.5,126.5 C 719.921,129.331 718.588,131.664 716.5,133.5C 717.079,130.669 718.412,128.336 720.5,126.5 Z"/></g>
<g><path style="opacity:0.579" fill="#d4d2ce" d="M 863.5,127.5 C 866.292,127.452 868.125,128.785 869,131.5C 870.393,136.949 869.226,141.616 865.5,145.5C 866.896,142.309 867.896,138.976 868.5,135.5C 868.328,131.807 866.661,129.141 863.5,127.5 Z"/></g>
<g><path style="opacity:0.686" fill="#dddad5" d="M 232.5,126.5 C 228.842,133.121 227.508,140.121 228.5,147.5C 227.883,147.389 227.383,147.056 227,146.5C 226.049,138.962 227.882,132.295 232.5,126.5 Z"/></g>
<g><path style="opacity:0.539" fill="#dbdad3" d="M 261.5,137.5 C 263.934,130.032 266.267,122.532 268.5,115C 257.995,114.19 247.995,116.024 238.5,120.5C 241.52,117.643 245.187,115.809 249.5,115C 255.002,114.166 260.502,113.333 266,112.5C 267.5,112.833 269,113.167 270.5,113.5C 268.182,120.436 266.015,127.436 264,134.5C 263.623,135.942 262.79,136.942 261.5,137.5 Z"/></g>
<g><path style="opacity:0.475" fill="#dfdcd7" d="M 692.5,133.5 C 692.741,135.898 692.074,137.898 690.5,139.5C 690.595,137.214 691.262,135.214 692.5,133.5 Z"/></g>
<g><path style="opacity:0.702" fill="#e1ddda" d="M 382.5,131.5 C 383.158,132.793 383.492,134.293 383.5,136C 383.664,138.544 382.997,140.71 381.5,142.5C 382.244,138.881 382.577,135.215 382.5,131.5 Z"/></g>
<g><path style="opacity:0.137" fill="#dfddd7" d="M 713.5,137.5 C 713.573,139.027 712.906,140.027 711.5,140.5C 711.427,138.973 712.094,137.973 713.5,137.5 Z"/></g>
<g><path style="opacity:0.949" fill="#e2dbd8" d="M 690.5,139.5 C 690.598,141.553 689.931,143.22 688.5,144.5C 688.402,142.447 689.069,140.78 690.5,139.5 Z"/></g>
<g><path style="opacity:0.933" fill="#b5caa7" d="M 259.5,140.5 C 259.372,142.09 258.705,143.423 257.5,144.5C 255.929,146.415 253.929,147.415 251.5,147.5C 254.141,145.196 256.808,142.862 259.5,140.5 Z"/></g>
<g><path style="opacity:0.059" fill="#deddd8" d="M 387.5,144.5 C 387.262,146.404 386.262,147.738 384.5,148.5C 384.738,146.596 385.738,145.262 387.5,144.5 Z"/></g>
<g><path style="opacity:0.031" fill="#dfdeda" d="M 873.5,144.5 C 873.262,146.404 872.262,147.738 870.5,148.5C 870.738,146.596 871.738,145.262 873.5,144.5 Z"/></g>
<g><path style="opacity:0.87" fill="#d9d5d2" d="M 265.5,160.5 C 263.589,160.426 262.422,159.426 262,157.5C 260.964,154.247 260.297,150.914 260,147.5C 259.184,148.823 258.017,149.489 256.5,149.5C 257.793,147.704 259.293,146.037 261,144.5C 260.737,150.41 262.237,155.743 265.5,160.5 Z"/></g>
<g><path style="opacity:0.949" fill="#dddcd6" d="M 688.5,144.5 C 688.539,147.089 687.539,149.089 685.5,150.5C 685.992,148.181 686.992,146.181 688.5,144.5 Z"/></g>
<g><path style="opacity:0.863" fill="#dddbd4" d="M 228.5,147.5 C 229.906,147.973 230.573,148.973 230.5,150.5C 229.094,150.027 228.427,149.027 228.5,147.5 Z"/></g>
<g><path style="opacity:0.894" fill="#dfdcd7" d="M 251.5,147.5 C 251.027,148.906 250.027,149.573 248.5,149.5C 248.973,148.094 249.973,147.427 251.5,147.5 Z"/></g>
<g><path style="opacity:0.863" fill="#c7d2bd" d="M 380.5,144.5 C 379.167,147.833 376.833,150.167 373.5,151.5C 375.5,148.833 377.833,146.5 380.5,144.5 Z"/></g>
<g><path style="opacity:0.443" fill="#ccd4c2" d="M 819.5,146.5 C 821.063,147.945 822.396,149.611 823.5,151.5C 821.003,150.871 819.67,149.204 819.5,146.5 Z"/></g>
<g><path style="opacity:0.965" fill="#dcdad5" d="M 207.5,130.5 C 204.934,135.7 203.267,141.2 202.5,147C 203.074,150.312 204.074,153.478 205.5,156.5C 202.544,153.908 201.211,150.574 201.5,146.5C 201.752,140.399 203.752,135.065 207.5,130.5 Z"/></g>
<g><path style="opacity:0.38" fill="#d3d5cb" d="M 702.5,149.5 C 701.415,151.587 699.749,152.92 697.5,153.5C 698.585,151.413 700.251,150.08 702.5,149.5 Z"/></g>
<g><path style="opacity:0.227" fill="#cad4c1" d="M 256.5,149.5 C 255.415,151.587 253.749,152.92 251.5,153.5C 252.585,151.413 254.251,150.08 256.5,149.5 Z"/></g>
<g><path style="opacity:0.961" fill="#dcd9d5" d="M 248.5,149.5 C 248.389,150.117 248.056,150.617 247.5,151C 242.995,152.962 238.328,153.629 233.5,153C 232.058,152.623 231.058,151.79 230.5,150.5C 236.518,152.579 242.518,152.246 248.5,149.5 Z"/></g>
<g><path style="opacity:0.488" fill="#e0dcd9" d="M 373.5,151.5 C 370.753,154.207 367.42,155.873 363.5,156.5C 366.515,154.326 369.849,152.659 373.5,151.5 Z"/></g>
<g><path style="opacity:0.118" fill="#dcdad6" d="M 329.5,154.5 C 328.833,154.5 328.167,154.5 327.5,154.5C 329.394,151.813 330.061,151.813 329.5,154.5 Z"/></g>
<g><path style="opacity:1" fill="#c2d0b6" d="M 685.5,150.5 C 684.533,153.458 682.533,155.125 679.5,155.5C 681.284,153.633 683.284,151.966 685.5,150.5 Z"/></g>
<g><path style="opacity:0.212" fill="#dfddd9" d="M 327.5,154.5 C 327.027,155.906 326.027,156.573 324.5,156.5C 324.973,155.094 325.973,154.427 327.5,154.5 Z"/></g>
<g><path style="opacity:0.031" fill="#d9dad2" d="M 382.5,150.5 C 380.807,153.19 378.473,155.19 375.5,156.5C 377.219,153.781 379.553,151.781 382.5,150.5 Z"/></g>
<g><path style="opacity:0.051" fill="#c4d0b8" d="M 649.5,153.5 C 651.531,154.539 652.864,156.205 653.5,158.5C 651.478,157.493 650.145,155.826 649.5,153.5 Z"/></g>
<g><path style="opacity:0.176" fill="#dfdfd9" d="M 813.5,154.5 C 813.027,155.906 812.027,156.573 810.5,156.5C 810.973,155.094 811.973,154.427 813.5,154.5 Z"/></g>
<g><path style="opacity:0.031" fill="#d8dad1" d="M 868.5,150.5 C 866.082,154.245 862.749,156.912 858.5,158.5C 861.52,155.484 864.854,152.817 868.5,150.5 Z"/></g>
<g><path style="opacity:0.243" fill="#cdd4c3" d="M 297.5,152.5 C 296.271,155.974 293.938,158.307 290.5,159.5C 292.5,156.833 294.833,154.5 297.5,152.5 Z"/></g>
<g><path style="opacity:0.31" fill="#d9d7d1" d="M 658.5,153.5 C 665.246,156.568 672.246,157.235 679.5,155.5C 679.389,156.117 679.056,156.617 678.5,157C 673.833,157.667 669.167,157.667 664.5,157C 661.975,156.576 659.975,155.41 658.5,153.5 Z"/></g>
<g><path style="opacity:0.914" fill="#dbdbd4" d="M 816.5,154.5 C 818.749,155.08 820.415,156.413 821.5,158.5C 819.251,157.92 817.585,156.587 816.5,154.5 Z"/></g>
<g><path style="opacity:0.65" fill="#d9d7d2" d="M 342.5,155.5 C 349.409,157.675 356.409,158.008 363.5,156.5C 360.474,158.019 357.141,158.685 353.5,158.5C 349.305,158.961 345.638,157.961 342.5,155.5 Z"/></g>
<g><path style="opacity:0.286" fill="#e0dcd8" d="M 375.5,156.5 C 375.027,157.906 374.027,158.573 372.5,158.5C 372.973,157.094 373.973,156.427 375.5,156.5 Z"/></g>
<g><path style="opacity:0.667" fill="#d9d7d2" d="M 859.5,151.5 C 851.657,157.877 842.657,160.043 832.5,158C 830.68,157.8 829.347,156.966 828.5,155.5C 833.704,157.254 839.037,157.754 844.5,157C 849.728,155.716 854.728,153.883 859.5,151.5 Z"/></g>
<g><path style="opacity:0.851" fill="#dcdad4" d="M 653.5,158.5 C 655.027,158.427 656.027,159.094 656.5,160.5C 654.973,160.573 653.973,159.906 653.5,158.5 Z"/></g>
<g><path style="opacity:0.772" fill="#dedbd7" d="M -0.5,161.5 C -0.5,160.167 -0.5,158.833 -0.5,157.5C 0.434475,156.432 0.767809,155.099 0.5,153.5C 9.16667,153.5 17.8333,153.5 26.5,153.5C 38.8318,105.506 51.1651,57.5063 63.5,9.5C 55.5,9.5 47.5,9.5 39.5,9.5C 39.8333,6.83333 40.1667,4.16667 40.5,1.5C 67.1667,1.5 93.8333,1.5 120.5,1.5C 120.167,4.16667 119.833,6.83333 119.5,9.5C 110.833,9.5 102.167,9.5 93.5,9.5C 88.3043,31.2825 82.6376,52.9491 76.5,74.5C 98.8234,75.4997 121.157,75.833 143.5,75.5C 148.466,53.4707 154.132,31.6374 160.5,10C 152.147,9.83174 143.813,9.33174 135.5,8.5C 136.167,6.5 136.833,4.5 137.5,2.5C 164.167,1.16667 190.833,1.16667 217.5,2.5C 216.423,4.72942 215.756,7.06276 215.5,9.5C 206.915,9.18344 198.415,9.51677 190,10.5C 177.599,57.8669 165.099,105.2 152.5,152.5C 160.833,153.167 169.167,153.833 177.5,154.5C 176.423,156.729 175.756,159.063 175.5,161.5C 148.825,161.833 122.158,161.5 95.5,160.5C 96.5771,158.271 97.2437,155.937 97.5,153.5C 105.86,153.831 114.193,153.498 122.5,152.5C 128.912,129.599 134.912,106.599 140.5,83.5C 118.49,83.167 96.4899,83.5003 74.5,84.5C 68.029,107.384 62.029,130.384 56.5,153.5C 64.5,153.5 72.5,153.5 80.5,153.5C 80.4249,156.206 80.0916,158.873 79.5,161.5C 52.8333,161.5 26.1667,161.5 -0.5,161.5 Z"/></g>
<g><path style="opacity:1" fill="#7fb26a" d="M 42.5,3.5 C 68.0055,3.16893 93.3388,3.50226 118.5,4.5C 118.67,5.82207 118.337,6.98873 117.5,8C 109.147,8.16826 100.813,8.66826 92.5,9.5C 86.3582,31.7344 80.6915,54.0677 75.5,76.5C 98.5,76.5 121.5,76.5 144.5,76.5C 149.697,54.0462 155.363,31.7129 161.5,9.5C 162.043,9.44001 162.376,9.10667 162.5,8.5C 154.125,8.14764 146.125,7.14764 138.5,5.5C 138.328,4.50838 138.662,3.84171 139.5,3.5C 164.856,2.84276 189.856,3.50943 214.5,5.5C 214.586,6.4959 214.252,7.32924 213.5,8C 205.5,8.33333 197.5,8.66667 189.5,9C 176.407,57.45 163.407,105.95 150.5,154.5C 158.813,155.332 167.147,155.832 175.5,156C 174.809,157.067 174.309,158.234 174,159.5C 148.574,160.495 123.074,160.828 97.5,160.5C 97.4208,159.07 97.7542,157.736 98.5,156.5C 106.807,155.502 115.14,155.169 123.5,155.5C 129.674,131.137 136.008,106.804 142.5,82.5C 119.5,81.1667 96.5,81.1667 73.5,82.5C 66.6956,106.718 60.3623,131.051 54.5,155.5C 62.84,155.334 71.1733,155.5 79.5,156C 78.8333,157.333 78.1667,158.667 77.5,160C 51.8268,160.833 26.1602,160.666 0.5,159.5C 1.24585,158.264 1.57918,156.93 1.5,155.5C 10.1667,155.5 18.8333,155.5 27.5,155.5C 39.5382,106.681 52.2048,58.0145 65.5,9.5C 57.1667,8.83333 48.8333,8.16667 40.5,7.5C 40.9943,5.97448 41.661,4.64115 42.5,3.5 Z"/></g>
<g><path style="opacity:1" fill="#9fc18e" d="M 138.5,5.5 C 146.125,7.14764 154.125,8.14764 162.5,8.5C 162.376,9.10667 162.043,9.44001 161.5,9.5C 153.684,8.50761 145.684,8.17428 137.5,8.5C 137.263,7.20895 137.596,6.20895 138.5,5.5 Z"/></g>
<g><path style="opacity:0.992" fill="#aac59a" d="M 139.5,3.5 C 164.661,2.50226 189.995,2.16893 215.5,2.5C 215.737,3.79105 215.404,4.79105 214.5,5.5C 189.856,3.50943 164.856,2.84276 139.5,3.5 Z"/></g>
<g><path style="opacity:0.992" fill="#aac59a" d="M 42.5,3.5 C 68.0032,2.1709 93.6698,2.1709 119.5,3.5C 119.376,4.10667 119.043,4.44001 118.5,4.5C 93.3388,3.50226 68.0055,3.16893 42.5,3.5 Z"/></g>
<g><path style="opacity:0.773" fill="#dddbd5" d="M 521.5,74.5 C 522.79,75.0577 523.623,76.0577 524,77.5C 525.722,83.4722 525.722,89.4722 524,95.5C 519.163,114.847 514.33,134.181 509.5,153.5C 514.544,153.173 519.544,153.506 524.5,154.5C 523.423,156.729 522.756,159.063 522.5,161.5C 504.167,161.5 485.833,161.5 467.5,161.5C 467.833,158.833 468.167,156.167 468.5,153.5C 474.303,154.087 479.803,153.42 485,151.5C 490.983,128.903 496.649,106.236 502,83.5C 502.968,74.1625 498.801,70.9959 489.5,74C 486.479,75.1798 483.479,76.3465 480.5,77.5C 482.649,75.2542 485.316,73.7542 488.5,73C 492.5,72.3333 496.5,72.3333 500.5,73C 502.919,74.6856 503.919,77.019 503.5,80C 498.05,105.3 492.05,130.467 485.5,155.5C 480.167,155.5 474.833,155.5 469.5,155.5C 469.579,156.93 469.246,158.264 468.5,159.5C 485.824,160.666 503.157,160.833 520.5,160C 521.167,158.667 521.833,157.333 522.5,156C 517.511,155.501 512.511,155.334 507.5,155.5C 512.822,134.544 517.989,113.544 523,92.5C 523.964,86.3237 523.464,80.3237 521.5,74.5 Z"/></g>
<g><path style="opacity:0.772" fill="#dddad6" d="M 593.5,65.5 C 595.5,65.5 597.5,65.5 599.5,65.5C 592.534,94.8637 584.868,124.03 576.5,153C 581.489,153.499 586.489,153.666 591.5,153.5C 591.425,156.206 591.092,158.873 590.5,161.5C 571.488,161.833 552.488,161.5 533.5,160.5C 534.167,158.5 534.833,156.5 535.5,154.5C 541.128,153.505 546.794,153.171 552.5,153.5C 558.694,127.724 565.361,102.058 572.5,76.5C 567.208,75.5052 561.875,75.1718 556.5,75.5C 556.833,72.8333 557.167,70.1667 557.5,67.5C 569.7,67.6822 581.7,67.0155 593.5,65.5 Z"/></g>
<g><path style="opacity:1" fill="#7fb26a" d="M 585.5,67.5 C 589.5,67.5 593.5,67.5 597.5,67.5C 589.963,96.7783 582.63,126.112 575.5,155.5C 580.511,155.334 585.511,155.501 590.5,156C 589.833,157.333 589.167,158.667 588.5,160C 570.836,160.5 553.17,160.667 535.5,160.5C 535.286,158.856 535.62,157.356 536.5,156C 542.157,155.501 547.824,155.334 553.5,155.5C 559.713,128.314 566.713,101.314 574.5,74.5C 569.208,73.5052 563.875,73.1718 558.5,73.5C 558.286,71.8561 558.62,70.3561 559.5,69C 568.343,68.8296 577.01,68.3296 585.5,67.5 Z"/></g>
<g><path style="opacity:0.773" fill="#dedbd7" d="M 790.5,65.5 C 792.604,65.2011 794.604,65.5344 796.5,66.5C 788.625,95.4564 780.958,124.456 773.5,153.5C 778.5,153.5 783.5,153.5 788.5,153.5C 788.221,156.118 787.554,158.618 786.5,161C 767.836,161.5 749.17,161.667 730.5,161.5C 730.833,158.833 731.167,156.167 731.5,153.5C 737.631,154.092 743.464,153.425 749,151.5C 755.817,126.233 762.317,100.9 768.5,75.5C 763.125,75.8282 757.792,75.4948 752.5,74.5C 753.167,72.5 753.833,70.5 754.5,68.5C 766.668,67.6879 778.668,66.6879 790.5,65.5 Z"/></g>
<g><path style="opacity:1" fill="#7fb26a" d="M 792.5,66.5 C 793.376,66.3691 794.043,66.7025 794.5,67.5C 786.677,96.4567 779.011,125.457 771.5,154.5C 776.456,155.494 781.456,155.827 786.5,155.5C 786.579,156.93 786.246,158.264 785.5,159.5C 767.5,160.833 749.5,160.833 731.5,159.5C 732.246,158.264 732.579,156.93 732.5,155.5C 738.167,155.5 743.833,155.5 749.5,155.5C 756.5,128.167 763.5,100.833 770.5,73.5C 765.167,73.5 759.833,73.5 754.5,73.5C 754.421,72.0695 754.754,70.7362 755.5,69.5C 768.019,68.884 780.352,67.884 792.5,66.5 Z"/></g>
<g><path style="opacity:0.659" fill="#dcdbd5" d="M 247.5,156.5 C 242.64,160.12 237.306,162.786 231.5,164.5C 226.5,164.5 221.5,164.5 216.5,164.5C 212.799,163.594 209.799,161.594 207.5,158.5C 212.293,161.702 217.626,163.368 223.5,163.5C 231.993,162.779 239.993,160.446 247.5,156.5 Z"/></g>
<g><path style="opacity:0.645" fill="#dddcd6" d="M 290.5,159.5 C 290.047,160.458 289.381,161.292 288.5,162C 286.277,162.566 284.277,163.4 282.5,164.5C 278.5,164.5 274.5,164.5 270.5,164.5C 268.338,163.872 266.672,162.539 265.5,160.5C 273.932,164.628 282.265,164.294 290.5,159.5 Z"/></g>
<g><path style="opacity:0.653" fill="#dedbd6" d="M 372.5,158.5 C 368.529,161.269 364.195,163.269 359.5,164.5C 354.833,164.5 350.167,164.5 345.5,164.5C 343.036,163.433 340.703,162.1 338.5,160.5C 343.218,162.016 348.052,163.016 353,163.5C 359.745,162.689 366.245,161.022 372.5,158.5 Z"/></g>
<g><path style="opacity:0.664" fill="#dfdcd7" d="M 694.5,155.5 C 694.047,156.458 693.381,157.292 692.5,158C 687.523,160.483 682.523,162.65 677.5,164.5C 672.833,164.5 668.167,164.5 663.5,164.5C 660.782,163.896 658.449,162.563 656.5,160.5C 659.054,161.606 661.721,162.439 664.5,163C 675.299,163.634 685.299,161.134 694.5,155.5 Z"/></g>
<g><path style="opacity:0.09" fill="#e0dcd9" d="M 821.5,158.5 C 824.262,159.38 826.929,160.546 829.5,162C 837.984,164.123 846.318,163.623 854.5,160.5C 851.655,162.224 848.655,163.558 845.5,164.5C 840.833,164.5 836.167,164.5 831.5,164.5C 827.868,163.016 824.534,161.016 821.5,158.5 Z"/></g>
</svg>
