<?xml version="1.0" encoding="UTF-8"?>
<!DOCTYPE svg PUBLIC "-//W3C//DTD SVG 1.1//EN" "http://www.w3.org/Graphics/SVG/1.1/DTD/svg11.dtd">
<svg xmlns="http://www.w3.org/2000/svg" version="1.1" width="1295px" height="404px" style="shape-rendering:geometricPrecision; text-rendering:geometricPrecision; image-rendering:optimizeQuality; fill-rule:evenodd; clip-rule:evenodd" xmlns:xlink="http://www.w3.org/1999/xlink">
<g><path style="opacity:0.941" fill="#7cb067" d="M 189.5,-0.5 C 190.5,-0.5 191.5,-0.5 192.5,-0.5C 194.71,0.201324 196.544,1.53466 198,3.5C 195.466,26.781 204.966,42.781 226.5,51.5C 226.833,52 227.167,52.5 227.5,53C 226.521,55.4333 225.855,57.9333 225.5,60.5C 218.294,60.2313 211.961,57.7313 206.5,53C 196.81,43.7876 190.643,32.6209 188,19.5C 186.693,47.5432 199.526,65.7099 226.5,74C 227.523,76.7742 227.523,79.6075 226.5,82.5C 205.764,79.6922 190.931,68.6922 182,49.5C 177.959,38.2028 176.459,26.5361 177.5,14.5C 181.244,13.9733 184.411,14.9733 187,17.5C 187.266,11.3978 188.099,5.39784 189.5,-0.5 Z"/></g>
<g><path style="opacity:0.939" fill="#7cb067" d="M 166.5,29.5 C 169.448,29.2229 172.281,29.5562 175,30.5C 174.868,53.3981 183.701,71.8981 201.5,86C 209.494,90.0535 217.827,93.2202 226.5,95.5C 229.573,103.034 227.24,105.867 219.5,104C 182.329,93.1909 164.663,68.3576 166.5,29.5 Z"/></g>
<g><path style="opacity:0.938" fill="#7cb067" d="M 155.5,44.5 C 158.448,44.2229 161.281,44.5562 164,45.5C 164.106,63.8196 169.773,80.1529 181,94.5C 184.912,99.0833 189.412,102.917 194.5,106C 205.519,111.061 216.852,115.228 228.5,118.5C 227.607,121.084 227.274,123.751 227.5,126.5C 211.256,126.586 196.922,121.419 184.5,111C 171.983,100.122 162.817,86.9551 157,71.5C 154.483,62.5556 153.983,53.5556 155.5,44.5 Z"/></g>
<g><path style="opacity:0.995" fill="#363334" d="M 850.5,46.5 C 853.167,46.5 855.833,46.5 858.5,46.5C 858.333,74.8353 858.5,103.169 859,131.5C 873.138,110.166 892.304,104 916.5,113C 921.293,117.085 924.126,122.251 925,128.5C 925.5,152.164 925.667,175.831 925.5,199.5C 930.167,199.5 934.833,199.5 939.5,199.5C 939.5,201.833 939.5,204.167 939.5,206.5C 919.833,206.5 900.167,206.5 880.5,206.5C 880.5,204.167 880.5,201.833 880.5,199.5C 884.5,199.5 888.5,199.5 892.5,199.5C 892.667,176.164 892.5,152.831 892,129.5C 892.097,123.097 888.931,119.763 882.5,119.5C 871.27,122.229 864.103,129.229 861,140.5C 860.118,143.789 859.452,147.123 859,150.5C 858.5,166.83 858.333,183.163 858.5,199.5C 862.5,199.5 866.5,199.5 870.5,199.5C 870.5,201.833 870.5,204.167 870.5,206.5C 850.5,206.5 830.5,206.5 810.5,206.5C 810.5,204.167 810.5,201.833 810.5,199.5C 815.5,199.5 820.5,199.5 825.5,199.5C 825.5,151.833 825.5,104.167 825.5,56.5C 820.167,56.5 814.833,56.5 809.5,56.5C 809.5,54.1667 809.5,51.8333 809.5,49.5C 823.36,49.0894 837.026,48.0894 850.5,46.5 Z"/></g>
<g><path style="opacity:0.99" fill="#363334" d="M 1047.5,46.5 C 1050.83,46.5 1054.17,46.5 1057.5,46.5C 1057.33,73.1687 1057.5,99.8354 1058,126.5C 1067.55,111.86 1081.05,106.36 1098.5,110C 1121.92,117.799 1133.58,134.132 1133.5,159C 1133.97,177.056 1126.97,191.389 1112.5,202C 1097.67,210.213 1082.67,210.546 1067.5,203C 1063.67,200.5 1060.5,197.333 1058,193.5C 1057.5,197.821 1057.33,202.154 1057.5,206.5C 1042.17,206.5 1026.83,206.5 1011.5,206.5C 1011.5,204.167 1011.5,201.833 1011.5,199.5C 1015.83,199.5 1020.17,199.5 1024.5,199.5C 1024.5,151.833 1024.5,104.167 1024.5,56.5C 1020.17,56.5 1015.83,56.5 1011.5,56.5C 1011.5,54.1667 1011.5,51.8333 1011.5,49.5C 1023.66,48.8297 1035.66,47.8297 1047.5,46.5 Z M 1082.5,116.5 C 1085.99,116.705 1089.32,117.539 1092.5,119C 1093.89,120.171 1094.73,121.671 1095,123.5C 1096.11,135.454 1096.61,147.454 1096.5,159.5C 1096.61,171.546 1096.11,183.546 1095,195.5C 1094.53,196.931 1093.7,198.097 1092.5,199C 1074.95,203.8 1063.78,197.3 1059,179.5C 1057,166.167 1057,152.833 1059,139.5C 1061.59,126.221 1069.42,118.554 1082.5,116.5 Z"/></g>
<g><path style="opacity:1" fill="#363434" d="M 419.5,49.5 C 445.5,49.5 471.5,49.5 497.5,49.5C 497.5,52.1667 497.5,54.8333 497.5,57.5C 491.167,57.5 484.833,57.5 478.5,57.5C 478.5,78.8333 478.5,100.167 478.5,121.5C 495.833,121.5 513.167,121.5 530.5,121.5C 530.5,100.167 530.5,78.8333 530.5,57.5C 524.167,57.5 517.833,57.5 511.5,57.5C 511.5,54.8333 511.5,52.1667 511.5,49.5C 537.5,49.5 563.5,49.5 589.5,49.5C 589.5,52.1667 589.5,54.8333 589.5,57.5C 583.167,57.5 576.833,57.5 570.5,57.5C 570.5,104.5 570.5,151.5 570.5,198.5C 576.833,198.5 583.167,198.5 589.5,198.5C 589.5,201.167 589.5,203.833 589.5,206.5C 563.5,206.5 537.5,206.5 511.5,206.5C 511.5,203.833 511.5,201.167 511.5,198.5C 517.833,198.5 524.167,198.5 530.5,198.5C 530.5,175.833 530.5,153.167 530.5,130.5C 513.167,130.5 495.833,130.5 478.5,130.5C 478.5,153.167 478.5,175.833 478.5,198.5C 484.833,198.5 491.167,198.5 497.5,198.5C 497.5,201.167 497.5,203.833 497.5,206.5C 471.5,206.5 445.5,206.5 419.5,206.5C 419.5,203.833 419.5,201.167 419.5,198.5C 425.833,198.5 432.167,198.5 438.5,198.5C 438.5,151.5 438.5,104.5 438.5,57.5C 432.167,57.5 425.833,57.5 419.5,57.5C 419.5,54.8333 419.5,52.1667 419.5,49.5 Z"/></g>
<g><path style="opacity:0.972" fill="#363334" d="M 968.5,54.5 C 987.586,54.4189 994.086,63.4189 988,81.5C 981.356,88.9562 973.522,90.4562 964.5,86C 957.009,79.0062 955.509,70.8395 960,61.5C 962.441,58.5464 965.275,56.2131 968.5,54.5 Z"/></g>
<g><path style="opacity:0.972" fill="#363334" d="M 1168.5,54.5 C 1187.59,54.4189 1194.09,63.4189 1188,81.5C 1181.36,88.9562 1173.52,90.4562 1164.5,86C 1157.01,79.0062 1155.51,70.8395 1160,61.5C 1162.44,58.5464 1165.27,56.2131 1168.5,54.5 Z"/></g>
<g><path style="opacity:0.949" fill="#7cb067" d="M 143.5,59.5 C 148.772,58.5491 152.272,60.5491 154,65.5C 156.666,99.8374 174.166,123.004 206.5,135C 213.373,137.48 220.373,138.313 227.5,137.5C 235.938,123.814 245.938,111.314 257.5,100C 261.02,97.1256 264.853,96.2922 269,97.5C 269.79,100.634 269.457,103.634 268,106.5C 263.454,110.714 258.621,114.547 253.5,118C 237.224,136.644 228.89,158.477 228.5,183.5C 228.244,194.743 231.078,205.076 237,214.5C 240.037,213.291 243.204,212.457 246.5,212C 247.022,211.439 247.355,210.772 247.5,210C 232.343,169.963 240.343,135.296 271.5,106C 275.613,102.859 280.113,100.359 285,98.5C 288.526,101.271 289.193,104.604 287,108.5C 257.03,129.031 245.364,157.364 252,193.5C 253.204,199.074 255.371,204.241 258.5,209C 271.548,209.969 284.548,211.635 297.5,214C 302.399,215.449 307.065,217.449 311.5,220C 317.28,226.767 315.614,229.767 306.5,229C 272.975,214.219 241.641,217.885 212.5,240C 207.633,244.532 203.133,249.366 199,254.5C 200.281,258.337 202.615,261.67 206,264.5C 214.565,255.265 223.732,246.765 233.5,239C 262.391,224.004 291.391,223.671 320.5,238C 323.08,240.12 323.08,242.287 320.5,244.5C 319.148,245.896 317.481,246.563 315.5,246.5C 277.188,229.395 244.021,236.395 216,267.5C 214.692,269.134 213.858,270.968 213.5,273C 215.996,279.825 219.162,286.325 223,292.5C 228.715,304.329 230.715,316.662 229,329.5C 225.274,331.354 222.608,330.354 221,326.5C 220.011,307.186 213.344,290.186 201,275.5C 192.679,265.837 183.179,257.67 172.5,251C 163.189,245.729 153.189,243.229 142.5,243.5C 142.042,247.166 141.042,250.666 139.5,254C 184.891,262.058 211.558,288.725 219.5,334C 220.555,339.35 218.888,343.516 214.5,346.5C 213.522,346.023 212.689,345.357 212,344.5C 208.748,333.577 205.748,322.577 203,311.5C 189.51,282.828 167.01,267.495 135.5,265.5C 127.062,279.186 117.062,291.686 105.5,303C 95.1821,310.81 91.6821,308.643 95,296.5C 115.708,281.784 128.375,261.784 133,236.5C 135.062,220.933 133.062,205.933 127,191.5C 126.481,190.484 125.647,189.818 124.5,189.5C 121.218,190.488 117.885,191.154 114.5,191.5C 116.681,202.225 119.181,212.892 122,223.5C 124.255,242.479 119.922,259.812 109,275.5C 102.558,284.941 95.058,293.441 86.5,301C 83.1408,303.707 79.4742,304.541 75.5,303.5C 74.4383,300.897 74.2716,298.23 75,295.5C 106.247,273.793 117.914,244.126 110,206.5C 108.61,202.053 106.444,198.053 103.5,194.5C 92.6032,192.417 81.6032,190.917 70.5,190C 62.0915,188.76 54.5915,185.593 48,180.5C 46.4872,176.237 47.9872,173.904 52.5,173.5C 88.8204,190.222 122.487,186.055 153.5,161C 157.167,156.667 160.833,152.333 164.5,148C 161.628,145.463 159.128,142.63 157,139.5C 149.864,145.635 143.031,152.135 136.5,159C 116.877,173.464 94.877,178.797 70.5,175C 60.8017,174.544 51.8017,171.877 43.5,167C 40.5113,164.517 39.1779,161.35 39.5,157.5C 42.5184,157.335 45.5184,157.502 48.5,158C 85.1006,173.307 117.267,166.807 145,138.5C 146.632,136.067 148.132,133.567 149.5,131C 143.647,119.796 138.481,108.296 134,96.5C 131.548,89.2757 131.048,81.9424 132.5,74.5C 135.685,74.0196 138.519,74.6863 141,76.5C 143.872,102.747 155.039,124.58 174.5,142C 186.855,151.259 200.689,157.092 216,159.5C 217.436,159.441 218.769,159.108 220,158.5C 221.352,155.28 222.186,151.947 222.5,148.5C 209.26,145.106 196.26,140.94 183.5,136C 157.095,117.356 143.761,91.8564 143.5,59.5 Z"/></g>
<g><path style="opacity:0.935" fill="#7baf67" d="M 35.5,122.5 C 34.791,121.596 33.791,121.263 32.5,121.5C 27.6692,119.156 23.1692,116.156 19,112.5C 19.5075,108.958 21.3409,106.125 24.5,104C 18.7016,101.768 14.035,98.1015 10.5,93C 12.1667,91.3333 13.8333,89.6667 15.5,88C 16.8333,87.3333 18.1667,87.3333 19.5,88C 31.597,98.4859 45.2637,101.153 60.5,96C 65.3434,93.1506 70.1767,90.3172 75,87.5C 77.6312,88.9633 79.7979,90.9633 81.5,93.5C 77.8918,97.6009 73.5585,100.768 68.5,103C 55.8047,107.93 42.8047,109.263 29.5,107C 46.6581,116.622 63.9914,116.956 81.5,108C 85.5791,104.213 90.0791,101.046 95,98.5C 97.296,99.628 99.1293,101.295 100.5,103.5C 93.2133,114.495 82.88,120.995 69.5,123C 58.1246,125.059 46.7913,124.892 35.5,122.5 Z"/></g>
<g><path style="opacity:0.943" fill="#7baf67" d="M 302.5,100.5 C 305.301,102.219 307.301,104.719 308.5,108C 299.444,114.049 291.278,121.216 284,129.5C 268.828,151.563 266.661,174.897 277.5,199.5C 275.14,202.348 272.14,203.514 268.5,203C 262.953,193.982 260.286,184.149 260.5,173.5C 260.887,141.028 274.887,116.695 302.5,100.5 Z"/></g>
<g><path style="opacity:0.941" fill="#7cb067" d="M 324.5,113.5 C 294.745,130.706 285.411,155.706 296.5,188.5C 293.842,189.829 291.176,191.162 288.5,192.5C 286.242,190.323 284.742,187.657 284,184.5C 276.877,150.511 287.711,124.011 316.5,105C 321.932,102.547 325.266,104.38 326.5,110.5C 325.807,111.518 325.141,112.518 324.5,113.5 Z"/></g>
<g><path style="opacity:0.939" fill="#7cb168" d="M 342.5,115.5 C 341.833,115.5 341.5,115.833 341.5,116.5C 340.833,116.5 340.5,116.833 340.5,117.5C 316.689,129.804 308.022,149.137 314.5,175.5C 313.48,178.764 311.147,180.431 307.5,180.5C 304.442,178.385 302.942,175.385 303,171.5C 300.209,148.364 307.375,129.031 324.5,113.5C 329.076,110.38 334.076,108.047 339.5,106.5C 340.772,106.57 341.938,106.903 343,107.5C 343.722,110.261 343.555,112.927 342.5,115.5 Z"/></g>
<g><path style="opacity:0.939" fill="#7cb067" d="M 340.5,117.5 C 341.167,117.5 341.5,117.167 341.5,116.5C 342.167,116.5 342.5,116.167 342.5,115.5C 348.117,112.443 353.951,109.776 360,107.5C 361.819,110.739 362.319,114.072 361.5,117.5C 340.719,125.398 331.386,140.398 333.5,162.5C 333.515,167.152 331.182,169.485 326.5,169.5C 325.353,169.182 324.519,168.516 324,167.5C 320.004,147.656 325.504,130.99 340.5,117.5 Z"/></g>
<g><path style="opacity:0.942" fill="#7caf67" d="M 32.5,121.5 C 33.209,122.404 34.209,122.737 35.5,122.5C 55.5664,135.623 75.8998,135.79 96.5,123C 102.625,118.544 108.458,113.711 114,108.5C 116.222,110.385 118.056,112.551 119.5,115C 102.916,135.98 81.2491,144.647 54.5,141C 44.0175,140.068 34.8509,136.235 27,129.5C 25.8319,124.827 27.6653,122.16 32.5,121.5 Z"/></g>
<g><path style="opacity:0.98" fill="#363334" d="M 643.5,109.5 C 655.214,109.139 666.881,109.639 678.5,111C 687.921,112.107 694.421,116.94 698,125.5C 698.333,146.167 698.667,166.833 699,187.5C 699.768,191.265 702.102,193.265 706,193.5C 708.639,192.006 711.472,191.339 714.5,191.5C 714.938,194.893 714.105,197.893 712,200.5C 703.137,208.416 692.97,210.583 681.5,207C 675.608,204.108 671.441,199.608 669,193.5C 654.056,208.69 636.556,212.523 616.5,205C 608.271,197.977 605.437,189.144 608,178.5C 610.115,171.432 614.282,165.932 620.5,162C 635.48,153.97 651.48,150.47 668.5,151.5C 668.895,141.434 668.395,131.434 667,121.5C 664.747,117.455 661.247,115.622 656.5,116C 652.131,115.575 647.797,115.908 643.5,117C 640.052,120.147 639.885,123.647 643,127.5C 644.882,143.61 637.715,150.11 621.5,147C 615.645,144.464 612.978,139.964 613.5,133.5C 613.646,123.841 618.312,117.341 627.5,114C 632.874,112.16 638.207,110.66 643.5,109.5 Z M 661.5,158.5 C 663.833,158.5 666.167,158.5 668.5,158.5C 668.666,166.174 668.5,173.841 668,181.5C 666.313,194.544 659.146,199.711 646.5,197C 641.629,192.066 639.296,186.066 639.5,179C 639.542,172.866 641.542,167.532 645.5,163C 650.693,160.539 656.026,159.039 661.5,158.5 Z"/></g>
<g><path style="opacity:0.971" fill="#363334" d="M 751.5,109.5 C 762.656,108.311 773.323,109.978 783.5,114.5C 786.432,111.203 790.099,109.87 794.5,110.5C 794.5,119.5 794.5,128.5 794.5,137.5C 792.167,137.5 789.833,137.5 787.5,137.5C 783.938,123.613 774.938,116.28 760.5,115.5C 753.184,115.77 746.684,118.104 741,122.5C 737.141,128.962 738.974,133.128 746.5,135C 758.819,137.415 771.153,139.748 783.5,142C 797.869,146.71 804.536,156.71 803.5,172C 803.93,191.219 794.93,203.219 776.5,208C 763.308,210.234 750.975,208.067 739.5,201.5C 737.641,203.192 735.641,204.692 733.5,206C 731.19,206.497 728.857,206.663 726.5,206.5C 726.5,194.833 726.5,183.167 726.5,171.5C 728.833,171.5 731.167,171.5 733.5,171.5C 738.675,194.75 753.008,204.583 776.5,201C 784.293,198.875 788.96,193.875 790.5,186C 789.099,180.269 785.432,176.936 779.5,176C 767.33,174.5 755.33,172.167 743.5,169C 731.552,164.438 725.886,155.771 726.5,143C 726.754,125.604 735.088,114.438 751.5,109.5 Z"/></g>
<g><path style="opacity:0.997" fill="#363334" d="M 981.5,109.5 C 984.833,109.5 988.167,109.5 991.5,109.5C 991.5,139.5 991.5,169.5 991.5,199.5C 996.5,199.5 1001.5,199.5 1006.5,199.5C 1006.5,201.833 1006.5,204.167 1006.5,206.5C 985.833,206.5 965.167,206.5 944.5,206.5C 944.5,204.167 944.5,201.833 944.5,199.5C 949.167,199.5 953.833,199.5 958.5,199.5C 958.5,172.833 958.5,146.167 958.5,119.5C 953.167,119.5 947.833,119.5 942.5,119.5C 942.5,117.167 942.5,114.833 942.5,112.5C 955.668,111.845 968.668,110.845 981.5,109.5 Z"/></g>
<g><path style="opacity:0.997" fill="#363334" d="M 1181.5,109.5 C 1184.83,109.5 1188.17,109.5 1191.5,109.5C 1191.5,139.5 1191.5,169.5 1191.5,199.5C 1196.5,199.5 1201.5,199.5 1206.5,199.5C 1206.5,201.833 1206.5,204.167 1206.5,206.5C 1185.83,206.5 1165.17,206.5 1144.5,206.5C 1144.5,204.167 1144.5,201.833 1144.5,199.5C 1149.17,199.5 1153.83,199.5 1158.5,199.5C 1158.5,172.833 1158.5,146.167 1158.5,119.5C 1153.17,119.5 1147.83,119.5 1142.5,119.5C 1142.5,117.167 1142.5,114.833 1142.5,112.5C 1155.67,111.845 1168.67,110.845 1181.5,109.5 Z"/></g>
<g><path style="opacity:0.971" fill="#363334" d="M 1294.5,162.5 C 1294.5,168.833 1294.5,175.167 1294.5,181.5C 1291.55,194.202 1283.89,202.702 1271.5,207C 1259.65,209.424 1247.98,208.757 1236.5,205C 1234.34,204.086 1232.34,202.919 1230.5,201.5C 1228.64,203.192 1226.64,204.692 1224.5,206C 1222.19,206.497 1219.86,206.663 1217.5,206.5C 1217.5,194.833 1217.5,183.167 1217.5,171.5C 1219.83,171.5 1222.17,171.5 1224.5,171.5C 1229.68,194.75 1244.01,204.583 1267.5,201C 1275.29,198.875 1279.96,193.875 1281.5,186C 1280.1,180.269 1276.43,176.936 1270.5,176C 1258.87,174.482 1247.37,172.315 1236,169.5C 1220,163.238 1214,151.571 1218,134.5C 1220.83,121 1229,112.833 1242.5,110C 1253.65,108.312 1264.32,109.812 1274.5,114.5C 1277.43,111.203 1281.1,109.87 1285.5,110.5C 1285.5,119.5 1285.5,128.5 1285.5,137.5C 1283.17,137.5 1280.83,137.5 1278.5,137.5C 1274.94,123.613 1265.94,116.28 1251.5,115.5C 1245,115.834 1239,117.668 1233.5,121C 1230.05,124.016 1229.21,127.516 1231,131.5C 1235.38,134.473 1240.22,136.306 1245.5,137C 1256.35,138.073 1267.02,140.073 1277.5,143C 1286.55,146.623 1292.21,153.123 1294.5,162.5 Z"/></g>
<g><path style="opacity:0.943" fill="#7cb067" d="M 130.5,119.5 C 133.315,120.126 135.815,121.46 138,123.5C 138.738,126.212 138.071,128.545 136,130.5C 107.857,160.195 75.0241,166.695 37.5,150C 35.4148,148.959 33.7481,147.459 32.5,145.5C 33.8109,142.865 35.4776,140.531 37.5,138.5C 55.194,148.141 73.8606,150.975 93.5,147C 109.198,142.172 121.531,133.005 130.5,119.5 Z"/></g>
<g><path style="opacity:0.999" fill="#fefefe" d="M 171.5,153.5 C 186.979,158.272 202.146,163.938 217,170.5C 220.379,184.395 223.379,198.395 226,212.5C 226.758,214.769 226.591,216.936 225.5,219C 215.647,227.097 205.98,235.43 196.5,244C 194.223,245.959 191.723,247.459 189,248.5C 173.736,243.801 158.57,238.801 143.5,233.5C 143.893,219.387 141.727,205.72 137,192.5C 136.333,189.5 136.333,186.5 137,183.5C 150.222,175.443 161.722,165.443 171.5,153.5 Z"/></g>
<g><path style="opacity:0.943" fill="#7cb067" d="M 92.5,199.5 C 109.366,235.995 102.699,267.828 72.5,295C 68.8282,297.838 64.8282,300.171 60.5,302C 59.365,302.749 58.365,302.583 57.5,301.5C 56.5,299.5 55.5,297.5 54.5,295.5C 62.2782,289.523 69.7782,283.19 77,276.5C 85.6012,264.535 90.7679,251.201 92.5,236.5C 90.8011,225.037 88.4678,213.704 85.5,202.5C 88.2406,202.293 90.5739,201.293 92.5,199.5 Z"/></g>
<g><path style="opacity:0.94" fill="#7baf67" d="M -0.5,289.5 C -0.5,288.833 -0.5,288.167 -0.5,287.5C 9.26842,283.232 17.4351,276.898 24,268.5C 26.4548,264.469 28.1214,260.136 29,255.5C 29.1871,248.919 29.6871,242.419 30.5,236C 32.7778,235.014 35.1111,234.18 37.5,233.5C 42.4796,252.728 38.1462,269.562 24.5,284C 40.7546,276.176 49.4213,263.009 50.5,244.5C 49.2533,238.202 48.7533,231.869 49,225.5C 51.2905,223.405 53.7905,222.738 56.5,223.5C 63.9049,249.466 57.5716,271.633 37.5,290C 48.5647,285.671 57.0647,278.171 63,267.5C 71.702,250.575 72.8687,233.075 66.5,215C 69.1714,212.107 72.3381,211.274 76,212.5C 86.3571,245.583 78.1904,273.083 51.5,295C 47.5372,297.83 43.2039,299.163 38.5,299C 37.7289,296.423 36.7289,293.923 35.5,291.5C 30.9872,294.506 26.1539,296.84 21,298.5C 19.7337,295.534 18.5671,292.534 17.5,289.5C 13.2428,291.977 8.7428,293.977 4,295.5C 2.2453,293.642 0.745301,291.642 -0.5,289.5 Z"/></g>
<g><path style="opacity:0.93" fill="#7caf67" d="M 277.5,244.5 C 294.499,242.832 310.499,245.999 325.5,254C 326.667,255.167 327.833,256.333 329,257.5C 328.921,259.846 328.088,262.013 326.5,264C 316.927,261.034 307.261,258.034 297.5,255C 277.481,252.898 259.481,257.898 243.5,270C 239.082,273.747 235.416,278.08 232.5,283C 228.975,283.658 226.141,282.491 224,279.5C 223.685,278.092 224.018,276.759 225,275.5C 238.67,258.585 256.17,248.252 277.5,244.5 Z"/></g>
<g><path style="opacity:0.934" fill="#7cb067" d="M 288.5,261.5 C 300.932,260.628 312.932,262.461 324.5,267C 328.873,268.713 332.707,271.213 336,274.5C 335.828,277.351 334.661,279.851 332.5,282C 324.701,278.839 316.701,275.839 308.5,273C 294.884,269.913 281.884,271.58 269.5,278C 262.644,283.691 255.644,289.191 248.5,294.5C 246.5,292.833 244.5,291.167 242.5,289.5C 246.941,282.104 252.941,276.27 260.5,272C 269.424,267.022 278.758,263.522 288.5,261.5 Z"/></g>
<g><path style="opacity:0.947" fill="#7cb067" d="M 135.5,277.5 C 155.102,277.218 171.602,284.218 185,298.5C 196.002,310.501 203.335,324.501 207,340.5C 207.499,346.491 207.666,352.491 207.5,358.5C 204.298,360.102 201.298,359.768 198.5,357.5C 196.159,316.821 174.825,293.154 134.5,286.5C 134.368,283.43 134.701,280.43 135.5,277.5 Z"/></g>
<g><path style="opacity:0.894" fill="#363334" d="M 991.5,278.5 C 998.167,278.5 1004.83,278.5 1011.5,278.5C 1010.71,283.696 1009.21,288.696 1007,293.5C 1000.22,294.811 993.39,294.811 986.5,293.5C 988.372,288.55 990.039,283.55 991.5,278.5 Z"/></g>
<g><path style="opacity:0.958" fill="#363334" d="M 683.5,279.5 C 690.342,279.039 697.009,279.872 703.5,282C 710.426,285.799 712.426,291.132 709.5,298C 704.074,299.198 698.741,300.698 693.5,302.5C 690.582,295.485 685.582,293.651 678.5,297C 675.494,299.635 675.828,301.635 679.5,303C 685.212,304.511 690.879,306.178 696.5,308C 703.759,311.693 706.259,317.526 704,325.5C 698.222,339.49 687.722,347.323 672.5,349C 662.878,350.61 654.045,348.776 646,343.5C 642.992,338.984 641.826,333.984 642.5,328.5C 649.55,327.825 656.55,326.825 663.5,325.5C 662.725,329.182 664.059,331.682 667.5,333C 671.594,333.767 675.594,333.434 679.5,332C 681.922,329.888 681.922,327.888 679.5,326C 671.73,324.521 664.396,321.854 657.5,318C 652.429,311.057 652.263,303.891 657,296.5C 663.401,286.913 672.234,281.247 683.5,279.5 Z"/></g>
<g><path style="opacity:0.954" fill="#363334" d="M 442.5,280.5 C 449.422,280.188 456.256,280.521 463,281.5C 466.312,292.083 469.312,302.749 472,313.5C 475.788,302.633 479.288,291.633 482.5,280.5C 488.537,280.171 494.537,280.504 500.5,281.5C 493.099,303.537 485.599,325.537 478,347.5C 472,348.833 466,348.833 460,347.5C 456.196,334.616 452.862,321.616 450,308.5C 446.337,321.655 442.171,334.655 437.5,347.5C 431.528,348.664 425.528,348.83 419.5,348C 427.663,325.679 435.329,303.179 442.5,280.5 Z"/></g>
<g><path style="opacity:0.941" fill="#363334" d="M 956.5,281.5 C 963.175,281.334 969.842,281.5 976.5,282C 974.332,287.003 972.666,292.17 971.5,297.5C 974.5,297.5 977.5,297.5 980.5,297.5C 979.644,301.57 978.477,305.57 977,309.5C 973.541,310.133 970.041,310.8 966.5,311.5C 964.432,317.538 962.265,323.538 960,329.5C 959.28,331.112 959.446,332.612 960.5,334C 963.332,334.212 965.998,334.379 968.5,334.5C 966.901,338.796 965.401,343.129 964,347.5C 956.929,349.965 949.763,350.131 942.5,348C 939.578,346.163 937.911,343.496 937.5,340C 939.996,330.346 942.996,320.846 946.5,311.5C 944.167,310.833 941.833,310.167 939.5,309.5C 940.833,305.833 942.167,302.167 943.5,298.5C 946.167,297.833 948.833,297.167 951.5,296.5C 953.376,291.539 955.043,286.539 956.5,281.5 Z"/></g>
<g><path style="opacity:0.936" fill="#7cb067" d="M 298.5,278.5 C 312.644,277.591 325.977,280.424 338.5,287C 345.391,292.318 344.724,296.318 336.5,299C 342.062,301.894 347.062,305.561 351.5,310C 348.688,317.826 344.688,318.493 339.5,312C 327.1,305.015 314.1,303.682 300.5,308C 297.328,309.752 294.328,311.752 291.5,314C 287.193,317.771 284.026,316.937 282,311.5C 281.219,310.056 281.386,308.723 282.5,307.5C 297.026,296.286 313.359,292.453 331.5,296C 309.188,283.894 288.855,286.561 270.5,304C 268.833,304.667 267.167,304.667 265.5,304C 264.315,302.647 262.981,301.48 261.5,300.5C 266.389,292.883 273.056,287.383 281.5,284C 287.137,281.682 292.803,279.849 298.5,278.5 Z"/></g>
<g><path style="opacity:0.946" fill="#363334" d="M 523.5,296.5 C 546.045,295.718 553.712,306.052 546.5,327.5C 535.167,327.5 523.833,327.5 512.5,327.5C 510.666,336.579 513.999,338.913 522.5,334.5C 523.871,331.712 526.038,330.045 529,329.5C 534.192,329.974 539.359,330.641 544.5,331.5C 533.379,347.708 518.379,352.874 499.5,347C 491.467,340.577 489.301,332.41 493,322.5C 498.802,308.519 508.968,299.853 523.5,296.5 Z M 522.5,308.5 C 528.701,307.365 531.035,309.699 529.5,315.5C 525.205,316.661 520.871,316.828 516.5,316C 517.69,312.75 519.69,310.25 522.5,308.5 Z"/></g>
<g><path style="opacity:0.941" fill="#363334" d="M 740.5,296.5 C 763.112,295.614 770.445,305.781 762.5,327C 751.5,327.333 740.5,327.667 729.5,328C 727.037,334.89 729.37,337.557 736.5,336C 739.167,334.667 741.167,332.667 742.5,330C 748.82,330.024 755.153,330.357 761.5,331C 751.177,346.447 736.844,352.114 718.5,348C 711.627,344.936 707.961,339.602 707.5,332C 711.144,313.193 722.144,301.36 740.5,296.5 Z M 739.5,308.5 C 745.396,307.848 747.73,310.515 746.5,316.5C 742.116,316.826 737.783,316.492 733.5,315.5C 734.833,312.507 736.833,310.173 739.5,308.5 Z"/></g>
<g><path style="opacity:0.944" fill="#363334" d="M 807.5,296.5 C 821.998,294.818 827.165,300.818 823,314.5C 819.463,325.613 815.629,336.613 811.5,347.5C 804.866,348.497 798.2,348.83 791.5,348.5C 795.577,335.936 799.244,323.27 802.5,310.5C 799.348,309.959 796.848,310.959 795,313.5C 790.735,324.795 786.568,336.128 782.5,347.5C 775.866,348.497 769.2,348.83 762.5,348.5C 767.494,331.685 772.994,315.018 779,298.5C 785.418,297.357 791.918,297.19 798.5,298C 797.483,299.049 797.316,300.216 798,301.5C 800.995,299.347 804.162,297.681 807.5,296.5 Z"/></g>
<g><path style="opacity:0.945" fill="#363334" d="M 853.5,296.5 C 860.526,295.805 867.193,296.972 873.5,300C 877.119,303.051 878.286,306.551 877,310.5C 871.876,311.77 866.709,312.77 861.5,313.5C 861.065,309.842 858.899,308.175 855,308.5C 853.033,308.542 851.199,309.042 849.5,310C 848.289,310.893 848.289,311.726 849.5,312.5C 856.737,313.483 863.737,315.316 870.5,318C 875.248,323.888 875.415,330.054 871,336.5C 859.869,348.228 846.369,352.061 830.5,348C 823.319,345.313 820.319,340.147 821.5,332.5C 827.178,331.915 832.845,331.249 838.5,330.5C 837.965,333.238 838.965,335.072 841.5,336C 844.833,336.667 848.167,336.667 851.5,336C 852.91,335.632 853.91,334.799 854.5,333.5C 847.56,331.335 840.56,329.169 833.5,327C 828.399,320.769 828.232,314.269 833,307.5C 838.606,301.36 845.44,297.693 853.5,296.5 Z"/></g>
<g><path style="opacity:0.946" fill="#363334" d="M 908.5,296.5 C 916.466,295.867 924.133,297.034 931.5,300C 934.36,303.681 935.193,307.848 934,312.5C 929.576,324.267 926.076,336.267 923.5,348.5C 917.167,348.5 910.833,348.5 904.5,348.5C 904.66,346.801 904.494,345.134 904,343.5C 895.018,350.467 885.684,351.134 876,345.5C 872.466,334.771 875.633,326.605 885.5,321C 888.674,319.275 892.007,317.942 895.5,317C 901.761,316.116 907.928,314.949 914,313.5C 914.774,310.273 913.441,308.94 910,309.5C 908.833,309.667 907.667,309.833 906.5,310C 904.277,311.733 901.944,313.233 899.5,314.5C 894.17,313.667 888.837,312.834 883.5,312C 889.349,302.746 897.683,297.579 908.5,296.5 Z M 907.5,324.5 C 908.552,324.351 909.552,324.517 910.5,325C 909.287,329.772 906.621,333.439 902.5,336C 896.399,337.903 894.566,336.069 897,330.5C 900.069,327.554 903.569,325.554 907.5,324.5 Z"/></g>
<g><path style="opacity:0.956" fill="#363334" d="M 1034.5,296.5 C 1056.6,294.757 1064.43,304.423 1058,325.5C 1048.62,344.605 1033.46,352.105 1012.5,348C 1007.57,346.073 1004.41,342.573 1003,337.5C 1001.49,322.02 1007.32,310.187 1020.5,302C 1025.02,299.445 1029.68,297.612 1034.5,296.5 Z M 1033.5,309.5 C 1039.2,309.146 1041.04,311.813 1039,317.5C 1037.54,324.591 1034.37,330.758 1029.5,336C 1026.13,337.205 1023.8,336.205 1022.5,333C 1023.67,323.826 1027.34,315.993 1033.5,309.5 Z"/></g>
<g><path style="opacity:0.951" fill="#363334" d="M 1101.5,296.5 C 1106.41,296.063 1111.08,296.896 1115.5,299C 1117.05,301.098 1118.05,303.432 1118.5,306C 1114.26,320.213 1109.93,334.38 1105.5,348.5C 1098.47,348.83 1091.47,348.497 1084.5,347.5C 1088.8,336.113 1092.8,324.613 1096.5,313C 1094.43,309.927 1091.93,309.761 1089,312.5C 1083.93,324.197 1079.77,336.197 1076.5,348.5C 1069.47,348.83 1062.47,348.497 1055.5,347.5C 1061.3,331.612 1066.8,315.612 1072,299.5C 1075.06,298.217 1078.4,297.55 1082,297.5C 1085.17,297.833 1088.33,298.167 1091.5,298.5C 1090.41,299.609 1090.41,300.609 1091.5,301.5C 1094.66,299.255 1097.99,297.588 1101.5,296.5 Z"/></g>
<g><path style="opacity:0.944" fill="#363334" d="M 1146.5,296.5 C 1153.84,295.859 1160.84,297.025 1167.5,300C 1170.74,302.954 1171.74,306.454 1170.5,310.5C 1166,311.445 1161.5,312.445 1157,313.5C 1154.05,308.847 1149.88,307.347 1144.5,309C 1141.83,310.333 1141.83,311.667 1144.5,313C 1149.86,313.871 1155.19,314.871 1160.5,316C 1167.13,319.097 1169.3,324.264 1167,331.5C 1163.27,340.228 1156.77,345.728 1147.5,348C 1138.72,350.272 1130.05,349.939 1121.5,347C 1116.62,343.407 1114.29,338.573 1114.5,332.5C 1120.2,332.079 1125.87,331.412 1131.5,330.5C 1131.45,333.292 1132.79,335.125 1135.5,336C 1138.83,336.667 1142.17,336.667 1145.5,336C 1147.59,335.047 1147.93,333.714 1146.5,332C 1139.95,331.092 1133.62,329.425 1127.5,327C 1121.41,318.073 1122.74,310.073 1131.5,303C 1136.29,300.133 1141.29,297.967 1146.5,296.5 Z"/></g>
<g><path style="opacity:0.941" fill="#363334" d="M 557.5,297.5 C 564.167,297.5 570.833,297.5 577.5,297.5C 576.572,304.823 576.072,312.156 576,319.5C 580.167,312.5 584.333,305.5 588.5,298.5C 593.792,297.505 599.125,297.172 604.5,297.5C 603.726,304.845 603.226,312.178 603,319.5C 607.5,312.333 612,305.167 616.5,298C 621.202,297.172 625.869,297.338 630.5,298.5C 620,314.833 609.5,331.167 599,347.5C 593.928,348.471 588.762,348.805 583.5,348.5C 584.466,340.511 584.966,332.511 585,324.5C 580.5,332.167 576,339.833 571.5,347.5C 566.544,348.494 561.544,348.827 556.5,348.5C 556.419,331.489 556.753,314.489 557.5,297.5 Z"/></g>
<g><path style="opacity:0.943" fill="#363334" d="M 985.5,297.5 C 992.2,297.17 998.866,297.503 1005.5,298.5C 1000.03,314.908 994.364,331.242 988.5,347.5C 981.866,348.497 975.2,348.83 968.5,348.5C 973.571,331.286 979.238,314.286 985.5,297.5 Z"/></g>
<g><path style="opacity:0.944" fill="#7cb067" d="M 135.5,299.5 C 153.548,300.773 168.714,308.106 181,321.5C 190.629,334.221 195.796,348.555 196.5,364.5C 196.476,367.421 196.143,370.254 195.5,373C 191.786,375.229 188.952,374.395 187,370.5C 187.808,347.949 178.975,330.449 160.5,318C 152.824,313.886 144.824,310.553 136.5,308C 135.556,305.281 135.223,302.448 135.5,299.5 Z"/></g>
<g><path style="opacity:0.939" fill="#7cb067" d="M 175.5,387.5 C 177.725,357.908 164.725,338.741 136.5,330C 135.217,327.205 135.217,324.372 136.5,321.5C 143.278,320.637 149.611,322.137 155.5,326C 177.304,340.439 187.137,360.605 185,386.5C 182.072,388.75 178.906,389.084 175.5,387.5 Z"/></g>
<g><path style="opacity:0.939" fill="#7baf67" d="M 175.5,387.5 C 175.267,392.894 174.601,398.227 173.5,403.5C 172.5,403.5 171.5,403.5 170.5,403.5C 168.735,402.539 166.735,402.205 164.5,402.5C 164.538,393.081 163.704,383.748 162,374.5C 159.646,369.142 156.146,364.642 151.5,361C 146.417,357.708 141.25,354.541 136,351.5C 134.342,343.58 137.176,341.08 144.5,344C 162.336,353.177 172.669,367.677 175.5,387.5 Z"/></g>
</svg>
