<svg xmlns="http://www.w3.org/2000/svg" xml:space="preserve" width="2048" height="2048" style="shape-rendering:geometricPrecision;text-rendering:geometricPrecision;image-rendering:optimizeQuality;fill-rule:evenodd;clip-rule:evenodd"><defs><style>.fil0,.fil1{fill:#212121;fill-rule:nonzero}.fil1{fill:#66bb6a}</style></defs><g id="Layer_x0020_1"><path class="fil0" d="M279.999 255.999h1176c6.68 0 12.72 2.73 17.07 7.133l311.9 311.899v-.002A23.921 23.921 0 0 1 1792 592v1176c0 13.255-10.745 24-24 24H280c-13.254 0-24-10.745-24-24V280c0-13.254 10.746-24 24-24zm1166.06 48H303.999v1440h1440V601.939l-297.938-297.938z"/><path class="fil0" d="M643.041 255.999h761.917c13.254 0 24 10.746 24 24v327.999c0 13.254-10.746 24-24 24H643.041c-13.254 0-24-10.746-24-24V279.999c0-13.254 10.746-24 24-24zm737.917 48H667.041v279.999h713.917V303.999zM545.435 903.999h957.131c13.254 0 24 10.746 24 24v840.002c0 13.254-10.746 24-24 24H545.435c-13.254 0-24-10.746-24-24V927.999c0-13.254 10.746-24 24-24zm933.131 48H569.435v792.002h909.131V951.999z"/><g id="_460811384"><path id="_460811192" class="fil1" d="M704 1148h640v-48H704z"/><path id="_460811696" class="fil1" d="M704 1372h640v-48H704z"/><path id="_460811552" class="fil1" d="M704 1596h640v-48H704z"/></g><path class="fil0" d="M1240 279.999c0-13.254-10.746-24-24-24s-24 10.746-24 24v327.999c0 13.254 10.746 24 24 24s24-10.746 24-24V279.999zm-208.001 327.999c0 13.254 10.746 24 24 24s24-10.746 24-24V279.999c0-13.254-10.746-24-24-24s-24 10.746-24 24v327.999z"/></g><path style="fill:none" d="M0 0h2048v2048H0z"/></svg>