<svg xmlns="http://www.w3.org/2000/svg" version="1.1" xmlns:xlink="http://www.w3.org/1999/xlink" xmlns:svgjs="http://svgjs.dev/svgjs" viewBox="0 0 800 800"><defs><linearGradient x1="50%" y1="0%" x2="50%" y2="100%" id="cccloud-grad"><stop stop-color="hsl(70, 69%, 60%)" stop-opacity="1" offset="0%"></stop><stop stop-color="hsl(70, 69%, 80%)" stop-opacity="1" offset="100%"></stop></linearGradient></defs><g fill="url(#cccloud-grad)" stroke-width="11" stroke="hsl(70, 69%, 50%)" id="cloud"><path d="M 284.2931941853767 603.1413611629247 A  50 50 0 1 1 170.6806291460366 400 A  50 50 0 1 1 200 250 A  50 50 0 1 1 350 200 A  50 50 0 1 1 500 250 A  50 50 0 1 1 650 400 A  50 50 0 1 1 550 500 A  50 50 0 1 1 464.6596854269817 603.4031397697189 A  50 50 0 1 1 284.2931941853767 603.1413611629247 Z" stroke-linecap="round" stroke-linejoin="round"></path></g></svg>